<?xml version="1.0" encoding="UTF-8"?>
<svg width="123px" height="64px" viewBox="0 0 123 64" version="1.1" xmlns="http://www.w3.org/2000/svg" xmlns:xlink="http://www.w3.org/1999/xlink">
    <!-- Generator: Sketch 52.5 (67469) - http://www.bohemiancoding.com/sketch -->
    <title>gente</title>
    <desc>Created with Sketch.</desc>
    <g id="Page-1" stroke="none" stroke-width="1" fill="none" fill-rule="evenodd">
        <g id="Tablet" transform="translate(-80.000000, -376.000000)">
            <g id="gente" transform="translate(80.000000, 376.000000)">
                <path d="M22.9999283,13 C19.1302496,13 16,16.1302817 16,20 C16,23.8697183 19.1548973,27 22.9999283,27 C26.8449593,27 29.9998566,23.8450704 29.9998566,20 C30.0245042,16.1302817 26.8696069,13 22.9999283,13 Z" id="Path"></path>
                <path d="M61.5,7 C55.1577253,7 50,12.1577253 50,18.5 C50,24.8422747 55.1577253,30 61.5,30 C67.8422747,30 73,24.8422747 73,18.5 C73,12.1577253 67.8422747,7 61.5,7 Z" id="Path"></path>
                <path d="M100,13 C96.130361,13 92.9754961,16.1302817 93.0001434,20 C93.0001434,23.8697183 96.1550084,27 100,27 C103.869639,27 106.999857,23.8450704 106.999857,20 C107.024504,16.1302817 103.869639,13 100,13 Z" id="Path"></path>
                <path d="M111.103118,29.4047437 C113.438249,26.8584545 114.91307,23.5042081 114.91307,19.7827085 C114.91307,11.8745218 108.448441,5.45983168 100.508993,5.45983168 C92.5695444,5.45983168 86.1049161,11.8990054 86.1049161,19.7827085 C86.1049161,23.5042081 87.5797362,26.882938 89.9148681,29.4292272 C86.4244604,31.3144606 83.4994005,34.1055853 81.4100719,37.5332823 C79.2224221,35.648049 76.7889688,34.0811018 74.1097122,32.8814078 C78.0425659,29.4292272 80.5497602,24.3856159 80.5497602,18.7788829 C80.5497602,8.42234124 72.0941247,0 61.6966427,0 C51.2991607,0 42.8435252,8.42234124 42.8435252,18.7788829 C42.8435252,24.4100995 45.3507194,29.4292272 49.2835731,32.8814078 C46.5059952,34.1300689 43.9496403,35.7949503 41.6882494,37.8026014 C39.5989209,34.2524866 36.6247002,31.3389441 33.0113909,29.4047437 C35.3465228,26.8584545 36.7967626,23.5042081 36.7967626,19.7827085 C36.7967626,11.8745218 30.3321343,5.45983168 22.3926859,5.45983168 C14.4532374,5.45983168 7.98860911,11.8990054 7.98860911,19.7827085 C7.98860911,23.5042081 9.46342926,26.8584545 11.7985612,29.4047437 C4.76858513,33.1752104 0,40.5692425 0,49.0650344 C0,51.0971691 1.64688249,52.7620505 3.7116307,52.7620505 C5.7763789,52.7620505 7.42326139,51.1216526 7.42326139,49.0650344 C7.42326139,40.814078 14.1582734,34.1300689 22.4172662,34.1300689 C28.7344125,34.1300689 34.2404077,38.0719204 36.4280576,43.8500383 C33.3063549,48.5753634 31.4874101,54.2310635 31.4874101,60.3029839 C31.4874101,62.3351186 33.1342926,64 35.1990408,64 C37.2392086,64 38.9106715,62.3596021 38.9106715,60.3029839 C38.9106715,47.7674063 49.1606715,37.5822494 61.7458034,37.5822494 C74.3309353,37.5822494 84.5563549,47.7674063 84.5563549,60.3029839 C84.5563549,62.3351186 86.2032374,64 88.2679856,64 C90.3327338,64 91.9796163,62.3596021 91.9796163,60.3029839 C91.9796163,54.0351951 90.0377698,48.2081102 86.7440048,43.3848508 C89.029976,37.876052 94.4868106,34.1300689 100.582734,34.1300689 C108.866307,34.1300689 115.576739,40.8385616 115.576739,49.0650344 C115.576739,51.0971691 117.223621,52.7620505 119.288369,52.7620505 C121.353118,52.7620505 123,51.1216526 123,49.0650344 C122.926259,40.5692425 118.133094,33.1752104 111.103118,29.4047437 Z M22.4172662,26.7360367 C18.5581535,26.7360367 15.4364508,23.6021423 15.4364508,19.7827085 C15.4364508,15.9387911 18.5827338,12.8293803 22.4172662,12.8293803 C26.2763789,12.8293803 29.3980815,15.9632747 29.3980815,19.7827085 C29.4226619,23.6266259 26.2763789,26.7360367 22.4172662,26.7360367 Z M61.721223,30.1882173 C55.4040767,30.1882173 50.2667866,25.0711553 50.2667866,18.7788829 C50.2667866,12.4866106 55.4040767,7.36954858 61.721223,7.36954858 C68.0383693,7.36954858 73.1756595,12.4866106 73.1756595,18.7788829 C73.1756595,25.0711553 68.0383693,30.1882173 61.721223,30.1882173 Z M100.508993,26.7360367 C96.6498801,26.7360367 93.5281775,23.6021423 93.5281775,19.7827085 C93.5281775,15.9387911 96.6744604,12.8293803 100.508993,12.8293803 C104.343525,12.8293803 107.489808,15.9632747 107.489808,19.7827085 C107.514388,23.6266259 104.368106,26.7360367 100.508993,26.7360367 Z" id="Shape" fill="#000000" fill-rule="nonzero"></path>
            </g>
        </g>
    </g>
</svg>