<svg version="1.1" id="Layer_1" xmlns="http://www.w3.org/2000/svg" xmlns:xlink="http://www.w3.org/1999/xlink" x="0" y="0" viewBox="0 0 270 80" xml:space="preserve" enable-background="new 0 0 270 80"><style type="text/css">.st0{fill:#005aa9}.st1{fill:#f5881f}.st2{fill:none;stroke:#035ba8;stroke-width:2.833;stroke-linecap:round;stroke-miterlimit:10}.st3{stroke-width:2.6994}.st3,.st4{fill:none;stroke:#035ba8;stroke-miterlimit:10}.st4{stroke-width:5.0708}.st4,.st5{stroke-linecap:round}.st5{stroke-width:5.3987}.st5,.st6{fill:none;stroke:#035ba8;stroke-miterlimit:10}.st6{stroke-width:3.3998}.st7{filter:url(#Adobe_OpacityMaskFilter)}.st8{fill:url(#SVGID_4_)}.st8,.st9{clip-path:url(#SVGID_2_)}.st9{mask:url(#SVGID_3_);fill:url(#SVGID_5_)}.st10{fill:#999}.st11{filter:url(#Adobe_OpacityMaskFilter_1_)}.st12{fill:url(#SVGID_9_)}.st12,.st13{clip-path:url(#SVGID_7_)}.st13{mask:url(#SVGID_8_);fill:url(#SVGID_10_)}.st14,.st15{fill:#FFF}.st15{stroke:#000;stroke-width:2.833;stroke-linecap:round;stroke-miterlimit:10}.st16{stroke-width:2.6994}.st16,.st17{fill:#FFF;stroke:#000;stroke-miterlimit:10}.st17{stroke-width:5.0708}.st17,.st18{stroke-linecap:round}.st18{stroke-width:5.3987}.st18,.st19{fill:#FFF;stroke:#000;stroke-miterlimit:10}.st19{stroke-width:3.3998}.st20{fill:url(#SVGID_11_)}.st21{fill:none;stroke:#000;stroke-width:2.833;stroke-linecap:round;stroke-miterlimit:10}.st22{fill:none;stroke-width:2.6994}.st22,.st23{stroke:#000;stroke-miterlimit:10}.st23{stroke-width:5.0708}.st23,.st24{stroke-linecap:round}.st24{stroke-width:5.3987}.st24,.st25{stroke:#000;stroke-miterlimit:10}.st25{fill:none;stroke-width:3.3998}.st26{fill:url(#SVGID_12_)}.st27{fill:#1b2f7c}.st28{stroke-width:1.1286;stroke-linecap:round}.st28,.st29{fill:none;stroke:#035ba8;stroke-miterlimit:10}.st29{stroke-width:2}.st30{stroke-width:2.1506;stroke-linecap:round}.st30,.st31{fill:none;stroke:#035ba8;stroke-miterlimit:10}.st31{stroke-width:1.3544}.st32{filter:url(#Adobe_OpacityMaskFilter_2_)}.st33{fill:url(#SVGID_16_)}.st33,.st34{clip-path:url(#SVGID_14_)}.st34{mask:url(#SVGID_15_);fill:url(#SVGID_17_)}.st35{fill:#e1b3b3}.st36{fill:#e5a876}</style><path class="st0" d="M101.4 28.9v7c-.9-1.1-2.2-1.8-3.7-1.8-3.2 0-5.2 2.6-5.2 5.7 0 3 2 5.7 5.2 5.7 1.5 0 2.8-.6 3.7-1.8v1.5h1.8V28.9h-1.8zm-3.5 14.9c-2.3 0-3.5-2-3.5-4.1 0-2 1.4-3.9 3.5-3.9 2.3 0 3.6 1.7 3.6 3.9s-1.3 4.1-3.6 4.1M83.7 28.9v7c-.9-1.1-2.2-1.8-3.7-1.8-3.2 0-5.2 2.6-5.2 5.7 0 3 2 5.7 5.2 5.7 1.5 0 2.8-.6 3.7-1.8v1.5h1.8V28.9h-1.8zm-3.5 14.9c-2.3 0-3.5-2-3.5-4.1 0-2 1.4-3.9 3.5-3.9 2.3 0 3.6 1.7 3.6 3.9s-1.3 4.1-3.6 4.1"/><path class="st1" d="M131.5 34.7c.9-1.1 2-1.8 3.5-1.8 3.3 0 4.1 2.4 4.1 5.2v7.1h-2v-6.7c0-1.9-.2-3.7-2.5-3.7-2.8 0-3 2.6-3 4.7v5.7h-2v-12h2v1.5zM155 39.6c0 2.2 1.6 4 3.9 4 1.7 0 2.8-1 3.6-2.5l1.7 1c-1.1 2.1-3.1 3.3-5.5 3.3-3.6 0-5.8-2.7-5.8-6.1 0-3.5 2.1-6.4 5.8-6.4 3.8 0 5.9 3.2 5.7 6.7H155zm7.2-1.7c-.3-1.7-1.7-3.1-3.5-3.1s-3.4 1.4-3.6 3.1h7.1zM179.6 45.2h-2V35.1h-1.3v-1.9h1.3V29h2v4.2h2.8l-.7 1.9h-2.1zM187.3 28.8c0 .8-.7 1.4-1.4 1.4s-1.4-.6-1.4-1.4c0-.8.7-1.4 1.4-1.4s1.4.6 1.4 1.4m-.5 16.4h-2v-12h2v12zM216.6 45.2h-2v-1.6h-.1c-1 1.3-2.4 2-4.1 2-3.5 0-5.7-3-5.7-6.3 0-3.4 2.2-6.3 5.7-6.3 1.6 0 3.1.8 4.1 2h.1v-1.7h2v11.9zm-9.8-6.1c0 2.3 1.4 4.5 3.9 4.5 2.6 0 4-2.1 4-4.5s-1.5-4.3-4-4.3c-2.4 0-3.9 2-3.9 4.3M229.5 36.8c-1-1.2-2.2-2-3.8-2-2.5 0-4.2 2-4.2 4.4 0 2.4 1.6 4.4 4.1 4.4 1.7 0 2.9-.8 3.9-2.1h.1v2.7c-1.2.8-2.4 1.2-3.8 1.2-3.6 0-6.3-2.7-6.3-6.3 0-3.6 2.9-6.3 6.4-6.3 1.3 0 2.6.4 3.7 1.2v2.8zM235.4 28.8c0 .8-.7 1.4-1.4 1.4-.8 0-1.4-.6-1.4-1.4 0-.8.7-1.4 1.4-1.4.8-.1 1.4.6 1.4 1.4m-.4 16.4h-2v-12h2v12zM238 39.2c0-3.5 2.8-6.3 6.3-6.3s6.3 2.8 6.3 6.3-2.8 6.3-6.3 6.3-6.3-2.8-6.3-6.3m2 0c0 2.4 1.7 4.4 4.2 4.4s4.2-2 4.2-4.4c0-2.4-1.7-4.4-4.2-4.4-2.4 0-4.2 2-4.2 4.4M255.5 34.7c.9-1.1 2-1.8 3.4-1.8 3.3 0 4.1 2.4 4.1 5.2v7.1h-2v-6.7c0-1.9-.2-3.7-2.5-3.7-2.8 0-3 2.6-3 4.7v5.7h-2v-12h2v1.5zM199.7 33.2v1.7h-.1c-1-1.3-2.4-2-4.1-2-3.5 0-5.8 3-5.8 6.3s2.2 6.2 5.7 6.2c1.6 0 3.2-.7 4.1-2h.1v1.4c0 2.7-.7 5-3.8 5h-.4v1.9h.4c1.8 0 3.5-.7 4.6-2.1 1.2-1.6 1.2-3.2 1.2-5.1V33.2h-1.9zm-3.9 10.4c-2.5 0-3.9-2.2-3.9-4.5 0-2.2 1.5-4.3 3.9-4.3 2.5 0 4 1.9 4 4.3s-1.4 4.5-4 4.5M123.4 29h2.1v16.2h-2.1zM249.7 26.2l-.3.3c-.2.2-.5.4-.9.7-.2.1-.4.3-.7.4-.2.2-.5.3-.7.4-.3.1-.5.3-.8.4-.3.1-.6.3-.9.4l-.9.3c-.3.1-.6.2-.9.2-.3.1-.6.2-.8.2-.3 0-.5.1-.8.1-.5.1-.9.1-1.1.1h-.4l-.1-1s.1 0 .4-.1c.3 0 .6-.1 1.1-.2.2-.1.4-.1.7-.2.2 0 .5-.1.8-.2.3-.1.5-.2.8-.3.3-.1.5-.2.8-.3.3-.1.5-.3.8-.4.3-.1.5-.3.7-.4.2-.1.5-.3.6-.4.2-.1.4-.3.5-.4.3-.3.6-.5.8-.7l.3-.3 1 1.4zM171.8 38.2c-1.4-.6-2.8-1-2.8-2.1 0-.8.8-1.3 1.5-1.3s1.3.6 1.6 1.2l1.7-.9c-.5-1.2-1.8-2.2-3.2-2.2-1.9 0-3.6 1.4-3.6 3.4 0 3.8 5.4 2.8 5.4 5.5 0 1.1-.8 1.8-1.9 1.8h-.1v1.9h.1c2.2 0 4-1.6 4-3.9.1-2-1.3-2.8-2.7-3.4M146.6 45.5l5.6-12.3H150l-3.6 8.1-3.5-8.1h-2.4l5.7 12.3z"/><path class="st0" d="M64.4 40.2c0 2 1.4 3.6 3.5 3.6 1.6 0 2.6-.9 3.3-2.2l1.6.9c-1 1.9-2.8 3-5 3-3.2 0-5.3-2.5-5.3-5.5 0-3.2 1.9-5.8 5.2-5.8 3.5 0 5.3 2.9 5.1 6.1h-8.4zm6.5-1.6c-.3-1.6-1.6-2.8-3.2-2.8s-3 1.3-3.3 2.8h6.5zM107.8 40.2c0 2 1.4 3.6 3.5 3.6 1.6 0 2.6-.9 3.3-2.2l1.6.9c-1 1.9-2.8 3-5 3-3.2 0-5.3-2.5-5.3-5.5 0-3.2 1.9-5.8 5.2-5.8 3.5 0 5.3 2.9 5.1 6.1h-8.4zm6.5-1.6c-.3-1.6-1.6-2.8-3.2-2.8s-3 1.3-3.3 2.8h6.5zM56 37.9c2.7-.2 4.3-2 4.3-4.5 0-3.7-3-4.5-6.3-4.5h-2.5v12.7l1.9 1.4v-5h.5l5.2 7.1h2.4L56 37.9zm-2.6-1.5v-5.8h.6c2.3 0 4.4.3 4.4 2.9 0 2.5-2.2 2.9-4.4 2.9h-.6z"/><g><path class="st28" d="M41 37.7l17.2 13"/><path class="st29" d="M40.3 38.5L57.9 8"/><path class="st0" d="M59.5 9c.6-1 .2-2.2-.7-2.7-1-.6-2.2-.2-2.7.7-.6 1-.2 2.2.7 2.7 1 .6 2.2.3 2.7-.7"/><path class="st29" d="M40.3 38.5l-.1-35.3"/><path class="st0" d="M42.2 3.3c0-1.1-.9-2-2-2s-2 .9-2 2 .9 2 2 2 2-.9 2-2"/><path class="st29" d="M40.3 38.5L22.6 8"/><path class="st0" d="M24.3 7c-.6-1-1.8-1.3-2.7-.7-1 .6-1.3 1.8-.7 2.7.6 1 1.8 1.3 2.7.7 1-.5 1.3-1.7.7-2.7"/><path class="st29" d="M40.3 38.5L9.6 20.9"/><path class="st0" d="M10.7 19.2c-1-.6-2.2-.2-2.7.7-.6 1-.2 2.2.7 2.7 1 .6 2.2.2 2.7-.7.6-.9.3-2.2-.7-2.7"/><path class="st29" d="M40.3 38.5H4.9"/><path class="st0" d="M5 36.5c-1.1 0-2 .9-2 2s.9 2 2 2 2-.9 2-2-.9-2-2-2"/><path class="st29" d="M40.3 38.5L9.6 56.2"/><path class="st0" d="M8.7 54.4c-1 .6-1.3 1.8-.7 2.7.6 1 1.8 1.3 2.7.7 1-.6 1.3-1.8.7-2.7-.5-.9-1.7-1.2-2.7-.7"/><path class="st29" d="M40.3 38.5L22.6 69.1"/><path class="st0" d="M20.9 68c-.6 1-.2 2.2.7 2.7 1 .6 2.2.2 2.7-.7.6-1 .2-2.2-.7-2.7-1-.6-2.2-.2-2.7.7M39.9 38.3l9.7-21.1.5.2-9.4 21.3z"/><path class="st0" d="M51.1 17.9c.3-.7 0-1.5-.7-1.8-.7-.3-1.5 0-1.8.7-.3.7 0 1.5.7 1.8.7.3 1.5 0 1.8-.7M39.8 38.5l-2.1-23.1.5-.1 2.5 23.2z"/><path class="st0" d="M39.3 15.3c-.1-.7-.7-1.3-1.5-1.2-.7.1-1.3.7-1.2 1.5.1.7.7 1.3 1.5 1.2.7-.1 1.3-.8 1.2-1.5M39.9 38.8L26.4 19.7l.5-.3 13.7 18.8z"/><path class="st0" d="M27.8 18.8c-.4-.6-1.3-.7-1.9-.3-.6.4-.7 1.3-.3 1.9.4.6 1.3.7 1.9.3.6-.4.7-1.3.3-1.9M40.1 38.9l-21.2-9.8.2-.5 21.3 9.5z"/><path class="st0" d="M19.6 27.7c-.7-.3-1.5 0-1.8.7-.3.7 0 1.5.7 1.8.7.3 1.5 0 1.8-.7.3-.7 0-1.5-.7-1.8M40.3 38.9L17 41l-.1-.5 23.3-2.4z"/><path class="st0" d="M16.9 39.4c-.7.1-1.3.7-1.2 1.5.1.7.7 1.3 1.5 1.2.7-.1 1.3-.7 1.2-1.5-.1-.7-.8-1.2-1.5-1.2M40.5 38.9L21.3 52.3l-.3-.4 19-13.8z"/><path class="st0" d="M20.5 51c-.6.4-.7 1.3-.3 1.9.4.6 1.3.7 1.9.3.6-.4.7-1.3.3-1.9-.5-.6-1.3-.8-1.9-.3M40.7 38.7l-10 21.2-.4-.2 9.6-21.4z"/><path class="st0" d="M29.3 59.2c-.3.7 0 1.5.7 1.8.7.3 1.5 0 1.8-.7.3-.7 0-1.5-.7-1.8-.7-.3-1.5 0-1.8.7M39.9 38.4l4.4-16.2 1.2.3-4.9 16.1z"/><path class="st0" d="M46.6 22.9c.3-1-.3-2-1.3-2.3-1-.3-2 .3-2.3 1.3-.3 1 .3 2 1.3 2.3 1 .3 2.1-.3 2.3-1.3M39.9 38.6l-4.4-16.3 1.3-.3 3.8 16.4z"/><path class="st0" d="M38 21.8c-.2-1-1.3-1.6-2.2-1.3-1 .2-1.6 1.3-1.3 2.2.2 1 1.3 1.6 2.2 1.3.9-.2 1.5-1.2 1.3-2.2M40 38.8l-11.9-12 .9-.8 11.5 12.2z"/><path class="st0" d="M29.9 25.2c-.7-.7-1.9-.8-2.6 0-.7.7-.8 1.9 0 2.6.7.7 1.9.8 2.6 0 .7-.7.7-1.9 0-2.6M40.2 38.9l-16.3-4.4.3-1.2 16.2 4.8z"/><path class="st0" d="M24.6 32.1c-1-.3-2 .3-2.3 1.3-.3 1 .3 2 1.3 2.3 1 .3 2-.3 2.3-1.3.3-1-.3-2-1.3-2.3M40.4 38.9L24 43.2l-.3-1.2 16.5-3.9z"/><path class="st0" d="M23.5 40.8c-1 .2-1.6 1.3-1.3 2.2.2 1 1.3 1.6 2.2 1.3 1-.2 1.6-1.3 1.3-2.2-.2-1-1.2-1.6-2.2-1.3M40.5 38.8l-12 11.9-.8-.9L40 38.2z"/><path class="st0" d="M26.9 48.8c-.7.7-.8 1.9 0 2.6.7.7 1.9.8 2.6 0 .7-.7.8-1.9 0-2.6-.7-.6-1.9-.7-2.6 0M40.6 38.6l-4.4 16.3-1.2-.3 4.9-16.2z"/><path class="st0" d="M33.8 54.1c-.3 1 .3 2 1.3 2.3 1 .3 2-.3 2.3-1.3.3-1-.3-2-1.3-2.3-1-.2-2 .4-2.3 1.3M46.7 38.4c0-3.5-2.8-6.4-6.4-6.4-3.5 0-6.4 2.8-6.4 6.4 0 3.5 2.8 6.4 6.4 6.4 3.6 0 6.4-2.9 6.4-6.4"/><path class="st30" d="M40.3 38.5l-3.7-6.3M40.3 38.5l-6.4-3.7"/><path class="st0" d="M57.7 51.4c.4.3.9.2 1.2-.2.3-.4.2-.9-.2-1.2-.4-.3-.9-.2-1.2.2-.3.3-.2.9.2 1.2"/><path class="st31" d="M40.6 38.4l3.2 11.9"/><path class="st0" d="M42.6 50.6c.2.7.9 1.1 1.5.9.7-.2 1.1-.9.9-1.5-.2-.7-.9-1.1-1.5-.9-.7.1-1.1.8-.9 1.5"/><defs><path id="SVGID_13_" d="M33.6 79.4c0 .3.1.5.4.6.3 0 .6-.1.6-.4l6.1-40.9-1.2-.3-5.9 41z"/></defs><clipPath id="SVGID_2_"><use xlink:href="#SVGID_13_" overflow="visible"/></clipPath><defs><filter id="Adobe_OpacityMaskFilter" filterUnits="userSpaceOnUse" x="29" y="38.4" width="16.6" height="41.7"><feColorMatrix type="matrix" values="1 0 0 0 0 0 1 0 0 0 0 0 1 0 0 0 0 0 1 0"/></filter></defs><mask maskUnits="userSpaceOnUse" x="29" y="38.4" width="16.6" height="41.7" id="SVGID_3_"><g class="st7"><linearGradient id="SVGID_4_" gradientUnits="userSpaceOnUse" x1="-802.275" y1="954.543" x2="-801.832" y2="954.543" gradientTransform="scale(154.5047) rotate(-90 76.593 -878.177)"><stop offset="0" stop-color="#000"/><stop offset=".179" stop-color="#4f4f4f"/><stop offset=".365" stop-color="#9a9a9a"/><stop offset=".519" stop-color="#d0d0d0"/><stop offset=".633" stop-color="#f2f2f2"/><stop offset=".696" stop-color="#FFF"/><stop offset="1" stop-color="#FFF"/></linearGradient><path class="st8" d="M29 38.4h12.1v68.2H29z"/></g></mask><linearGradient id="SVGID_5_" gradientUnits="userSpaceOnUse" x1="-802.103" y1="954.528" x2="-801.832" y2="954.528" gradientTransform="scale(154.5047) rotate(-90 76.593 -878.177)"><stop offset="0" stop-color="#FFF"/><stop offset=".179" stop-color="#b0cce4"/><stop offset=".365" stop-color="#659ccb"/><stop offset=".519" stop-color="#2f78b9"/><stop offset=".633" stop-color="#0d62ad"/><stop offset=".696" stop-color="#005aa9"/><stop offset="1" stop-color="#005aa9"/></linearGradient><path class="st9" d="M33.5 80L29 38.4h12.1L45.6 80z"/></g><g><path class="st1" d="M54 62.3v1.3h1.8v1H54v1.6h1.9v1h-3v-5.9h3v1H54z"/><path class="st10" d="M58.2 61.3h1.6c1.7 0 2.8 1.3 2.8 2.9 0 1.6-1.2 2.9-2.8 2.9h-1.6v-5.8zm1.1 4.8h.2c1.4 0 1.9-.8 1.9-1.9 0-1.3-.7-1.9-1.9-1.9h-.2v3.8zM64.7 61.3h1.1v3.3c0 .7.1 1.7 1 1.7 1 0 1-1 1-1.7v-3.3h1.1v3.5c0 1.4-.6 2.5-2.2 2.5s-2.2-1.1-2.2-2.5v-3.5zM75.3 62.8c-.3-.4-.8-.6-1.3-.6-1.1 0-1.7 1-1.7 2s.7 2 1.7 2c.5 0 1-.3 1.3-.6V67c-.4.2-.9.3-1.3.3-1.6 0-2.9-1.4-2.9-3 0-1.7 1.2-3.1 2.9-3.1.5 0 .9.1 1.3.3v1.3zM78.8 65.9l-.5 1.2h-1.2l2.3-6h.9l2.2 6h-1.2l-.5-1.2h-2zm1-3.1l-.6 2.2h1.4l-.8-2.2zM88.3 62.8c-.3-.4-.8-.6-1.3-.6-1.1 0-1.7 1-1.7 2s.7 2 1.7 2c.5 0 1-.3 1.3-.6V67c-.4.2-.9.3-1.3.3-1.6 0-2.9-1.4-2.9-3 0-1.7 1.2-3.1 2.9-3.1.5 0 .9.1 1.3.3v1.3zM91.8 67.1h-1.1v-5.9h1.1v5.9zM96.8 67.3c-1.8 0-2.9-1.4-2.9-3.1 0-1.7 1.1-3.1 2.9-3.1 1.7 0 2.9 1.3 2.9 3.1 0 1.7-1.1 3.1-2.9 3.1zm0-5c-1.1 0-1.7 1-1.7 1.9 0 .9.5 2 1.7 2 1.3 0 1.7-1.1 1.7-2 0-1-.6-1.9-1.7-1.9zm1.1-2.5L96.7 61l-.6-.3.9-1.3.9.4zM101.8 61.1h.8l3.1 4.1v-3.9h1.1v6h-.8l-3.1-4.1v4h-1.1v-6.1z"/><g><path class="st1" d="M124.8 67.1h-1.1v-4.9h-1.2v-1h3.5v1h-1.2v4.9z"/><path class="st10" d="M129.1 62.3v1.3h1.8v1h-1.8v1.6h1.9v1h-3v-5.9h3v1h-1.9zM137.2 62.8c-.3-.4-.8-.6-1.3-.6-1.1 0-1.7 1-1.7 2s.7 2 1.7 2c.5 0 1-.3 1.3-.6V67c-.4.2-.9.3-1.3.3-1.6 0-2.9-1.4-2.9-3 0-1.7 1.2-3.1 2.9-3.1.5 0 .9.1 1.3.3v1.3zM139.5 61.1h.8l3.1 4.1v-3.9h1.1v6h-.8l-3.1-4.1v4h-1.1v-6.1zM149.6 67.3c-1.8 0-2.9-1.4-2.9-3.1 0-1.7 1.2-3.1 2.9-3.1s2.9 1.3 2.9 3.1c0 1.7-1.1 3.1-2.9 3.1zm0-5c-1.1 0-1.7 1-1.7 1.9 0 .9.5 2 1.7 2 1.3 0 1.7-1.1 1.7-2 0-1-.6-1.9-1.7-1.9zM155.7 66.1h1.6v1h-2.8v-5.9h1.1v4.9zM161.9 67.3c-1.8 0-2.9-1.4-2.9-3.1 0-1.7 1.1-3.1 2.9-3.1s2.9 1.3 2.9 3.1c0 1.7-1.1 3.1-2.9 3.1zm0-5c-1.1 0-1.7 1-1.7 1.9 0 .9.5 2 1.7 2 1.3 0 1.7-1.1 1.7-2 0-1-.7-1.9-1.7-1.9zM172 64v.1c0 1.7-.8 3.1-2.7 3.1-1.7 0-2.8-1.4-2.8-3.1 0-1.7 1.1-3.1 2.9-3.1 1 0 1.9.5 2.3 1.4l-1 .5c-.2-.5-.7-.9-1.3-.9-1.1 0-1.6 1.1-1.6 2.1s.6 2.1 1.7 2.1c.7 0 1.3-.6 1.3-1.3h-1.2V64h2.4zM175.7 59.8l-1.2 1.2-.6-.3.9-1.3.9.4zm-.4 7.3h-1.1v-5.9h1.1v5.9zM178.9 65.9l-.5 1.2h-1.2l2.3-6h.9l2.2 6h-1.2l-.5-1.2h-2zm1-3.1l-.7 2.1h1.4l-.7-2.1z"/></g><g><path class="st1" d="M199.3 67.1h-1.1v-5.9h1.1v5.9z"/><path class="st10" d="M201.7 61.1h.8l3.1 4.1v-3.9h1.1v6h-.8l-3.1-4.1v4h-1.1v-6.1zM209.1 61.1h.8l3.1 4.1v-3.9h1.1v6h-.8l-3.1-4.1v4h-1.1v-6.1zM219.2 67.3c-1.8 0-2.9-1.4-2.9-3.1 0-1.7 1.1-3.1 2.9-3.1s2.9 1.3 2.9 3.1c0 1.7-1.1 3.1-2.9 3.1zm0-5c-1.1 0-1.7 1-1.7 1.9 0 .9.5 2 1.7 2 1.3 0 1.7-1.1 1.7-2 0-1-.6-1.9-1.7-1.9zM226.3 65.2l1.3-3.9h1.2l-2.3 6h-.7l-2.2-6h1.2l1.5 3.9zM231 65.9l-.5 1.2h-1.2l2.3-6h.9l2.2 6h-1.2l-.5-1.2h-2zm1-3.1l-.7 2.1h1.4l-.7-2.1zM240.5 62.8c-.3-.4-.8-.6-1.3-.6-1.1 0-1.7 1-1.7 2s.7 2 1.7 2c.5 0 1-.3 1.3-.6V67c-.4.2-.9.3-1.3.3-1.6 0-2.9-1.4-2.9-3 0-1.7 1.2-3.1 2.9-3.1.5 0 .9.1 1.3.3v1.3zM243.9 67.1h-1.1v-5.9h1.1v5.9zM248.9 67.3c-1.8 0-2.9-1.4-2.9-3.1 0-1.7 1.1-3.1 2.9-3.1 1.7 0 2.9 1.3 2.9 3.1 0 1.7-1.1 3.1-2.9 3.1zm0-5c-1.1 0-1.7 1-1.7 1.9 0 .9.5 2 1.7 2 1.3 0 1.7-1.1 1.7-2 .1-1-.6-1.9-1.7-1.9zm1.1-2.5l-1.2 1.2-.6-.3.9-1.3.9.4zM253.9 61.1h.8l3.1 4.1v-3.9h1.1v6h-.8l-3.1-4.1v4h-1.1v-6.1z"/></g><g><path class="st10" d="M113.4 64.2c0-.8.6-1.5 1.5-1.5.8 0 1.5.7 1.5 1.5s-.7 1.5-1.5 1.5c-.9 0-1.5-.7-1.5-1.5zM188.6 64.2c0-.8.6-1.5 1.5-1.5s1.5.7 1.5 1.5-.7 1.5-1.5 1.5-1.5-.7-1.5-1.5z"/></g></g></svg>