<?xml version="1.0" encoding="UTF-8"?>
<svg width="397px" height="88px" viewBox="0 0 397 88" version="1.1" xmlns="http://www.w3.org/2000/svg" xmlns:xlink="http://www.w3.org/1999/xlink">
    <!-- Generator: Sketch 53.1 (72631) - https://sketchapp.com -->
    <title>logo-red</title>
    <desc>Created with Sketch.</desc>
    <defs>
        <rect id="path-1" x="0" y="0" width="88" height="88" rx="4"></rect>
    </defs>
    <g id="Page-1" stroke="none" stroke-width="1" fill="none" fill-rule="evenodd">
        <g id="Tablet" transform="translate(-80.000000, -200.000000)">
            <g id="logo-red" transform="translate(80.000000, 200.000000)">
                <path d="M105.801,39 L105.801,7.325 L120.281,7.325 C124.30825,7.325 127.4305,8.45625 129.512,10.53775 C131.27675,12.3025 132.227,14.79125 132.227,17.77775 L132.227,17.86825 C132.227,22.9815 129.46675,26.19425 125.4395,27.6875 L133.17725,39 L125.03225,39 L118.24475,28.864 L112.7695,28.864 L112.7695,39 L105.801,39 Z M112.7695,22.71 L119.8285,22.71 C123.22225,22.71 125.168,20.9 125.168,18.23025 L125.168,18.13975 C125.168,15.15325 123.0865,13.61475 119.69275,13.61475 L112.7695,13.61475 L112.7695,22.71 Z M148.117931,39.543 C140.832681,39.543 135.447931,34.42975 135.447931,27.00875 L135.447931,26.91825 C135.447931,19.995 140.380181,14.2935 147.439181,14.2935 C155.538931,14.2935 159.249431,20.58325 159.249431,27.46125 C159.249431,28.00425 159.204181,28.63775 159.158931,29.27125 L142.280681,29.27125 C142.959431,32.3935 145.131431,34.0225 148.208431,34.0225 C150.516181,34.0225 152.190431,33.2985 154.090931,31.53375 L158.027681,35.018 C155.765181,37.8235 152.507181,39.543 148.117931,39.543 Z M142.190181,24.9725 L152.552431,24.9725 C152.145181,21.8955 150.335181,19.814 147.439181,19.814 C144.588431,19.814 142.733181,21.85025 142.190181,24.9725 Z M173.601862,39.4525 C167.945612,39.4525 162.560862,35.018 162.560862,26.91825 L162.560862,26.82775 C162.560862,18.728 167.855112,14.2935 173.601862,14.2935 C177.267112,14.2935 179.529612,15.96775 181.158612,17.9135 L181.158612,5.9675 L188.036612,5.9675 L188.036612,39 L181.158612,39 L181.158612,35.51575 C179.484362,37.77825 177.176612,39.4525 173.601862,39.4525 Z M175.366612,33.61525 C178.579362,33.61525 181.249112,30.9455 181.249112,26.91825 L181.249112,26.82775 C181.249112,22.8005 178.579362,20.13075 175.366612,20.13075 C172.153862,20.13075 169.438862,22.75525 169.438862,26.82775 L169.438862,26.91825 C169.438862,30.9455 172.153862,33.61525 175.366612,33.61525 Z M216.288973,39.4525 C210.632723,39.4525 205.247973,35.018 205.247973,26.91825 L205.247973,26.82775 C205.247973,18.728 210.542223,14.2935 216.288973,14.2935 C219.954223,14.2935 222.216723,15.96775 223.845723,17.9135 L223.845723,5.9675 L230.723723,5.9675 L230.723723,39 L223.845723,39 L223.845723,35.51575 C222.171473,37.77825 219.863723,39.4525 216.288973,39.4525 Z M218.053723,33.61525 C221.266473,33.61525 223.936223,30.9455 223.936223,26.91825 L223.936223,26.82775 C223.936223,22.8005 221.266473,20.13075 218.053723,20.13075 C214.840973,20.13075 212.125973,22.75525 212.125973,26.82775 L212.125973,26.91825 C212.125973,30.9455 214.840973,33.61525 218.053723,33.61525 Z M247.655404,39.543 C240.370154,39.543 234.985404,34.42975 234.985404,27.00875 L234.985404,26.91825 C234.985404,19.995 239.917654,14.2935 246.976654,14.2935 C255.076404,14.2935 258.786904,20.58325 258.786904,27.46125 C258.786904,28.00425 258.741654,28.63775 258.696404,29.27125 L241.818154,29.27125 C242.496904,32.3935 244.668904,34.0225 247.745904,34.0225 C250.053654,34.0225 251.727904,33.2985 253.628404,31.53375 L257.565154,35.018 C255.302654,37.8235 252.044654,39.543 247.655404,39.543 Z M241.727654,24.9725 L252.089904,24.9725 C251.682654,21.8955 249.872654,19.814 246.976654,19.814 C244.125904,19.814 242.270654,21.85025 241.727654,24.9725 Z" id="Red-de" fill="#F5881F"></path>
                <path d="M106.11775,79 L106.11775,47.325 L113.08625,47.325 L113.08625,79 L106.11775,79 Z M119.565181,79 L119.565181,54.746 L126.443181,54.746 L126.443181,58.185 C128.026931,56.14875 130.063181,54.2935 133.547431,54.2935 C138.751181,54.2935 141.782931,57.7325 141.782931,63.29825 L141.782931,79 L134.904931,79 L134.904931,65.47025 C134.904931,62.21225 133.366431,60.538 130.741931,60.538 C128.117431,60.538 126.443181,62.21225 126.443181,65.47025 L126.443181,79 L119.565181,79 Z M153.510862,79.181 L143.963112,54.746 L151.248362,54.746 L156.678362,70.99075 L162.153612,54.746 L169.303112,54.746 L159.755362,79.181 L153.510862,79.181 Z M182.705292,79.543 C175.420042,79.543 170.035292,74.42975 170.035292,67.00875 L170.035292,66.91825 C170.035292,59.995 174.967542,54.2935 182.026542,54.2935 C190.126292,54.2935 193.836792,60.58325 193.836792,67.46125 C193.836792,68.00425 193.791542,68.63775 193.746292,69.27125 L176.868042,69.27125 C177.546792,72.3935 179.718792,74.0225 182.795792,74.0225 C185.103542,74.0225 186.777792,73.2985 188.678292,71.53375 L192.615042,75.018 C190.352542,77.8235 187.094542,79.543 182.705292,79.543 Z M176.777542,64.9725 L187.139792,64.9725 C186.732542,61.8955 184.922542,59.814 182.026542,59.814 C179.175792,59.814 177.320542,61.85025 176.777542,64.9725 Z M206.741223,79.4525 C203.347473,79.4525 199.546473,78.32125 196.333723,75.78725 L199.274973,71.26225 C201.899473,73.16275 204.659723,74.15825 206.922223,74.15825 C208.913223,74.15825 209.818223,73.43425 209.818223,72.34825 L209.818223,72.25775 C209.818223,70.7645 207.465223,70.26675 204.795473,69.45225 C201.401723,68.45675 197.555473,66.873 197.555473,62.167 L197.555473,62.0765 C197.555473,57.14425 201.537473,54.384 206.424473,54.384 C209.501473,54.384 212.849973,55.42475 215.474473,57.1895 L212.849973,61.94075 C210.451723,60.538 208.053473,59.67825 206.288723,59.67825 C204.614473,59.67825 203.754723,60.40225 203.754723,61.3525 L203.754723,61.443 C203.754723,62.8005 206.062473,63.434 208.686973,64.339 C212.080723,65.47025 216.017473,67.09925 216.017473,71.53375 L216.017473,71.62425 C216.017473,77.009 211.990223,79.4525 206.741223,79.4525 Z M227.971654,79.40725 C223.763404,79.40725 220.912654,77.733 220.912654,72.122 L220.912654,60.6285 L218.016654,60.6285 L218.016654,54.746 L220.912654,54.746 L220.912654,48.54675 L227.790654,48.54675 L227.790654,54.746 L233.492154,54.746 L233.492154,60.6285 L227.790654,60.6285 L227.790654,70.99075 C227.790654,72.5745 228.469404,73.34375 230.007904,73.34375 C231.274904,73.34375 232.406154,73.027 233.401654,72.484 L233.401654,78.0045 C231.953654,78.86425 230.279404,79.40725 227.971654,79.40725 Z M237.980085,52.07625 L237.980085,45.9675 L245.220085,45.9675 L245.220085,52.07625 L237.980085,52.07625 Z M238.161085,79 L238.161085,54.746 L245.039085,54.746 L245.039085,79 L238.161085,79 Z M261.654016,86.3305 C257.717266,86.3305 254.006766,85.4255 250.929766,83.7965 L253.282766,78.638 C255.771516,80.04075 258.260266,80.85525 261.473016,80.85525 C266.179016,80.85525 268.396266,78.59275 268.396266,74.24875 L268.396266,73.07225 C266.360016,75.51575 264.142766,77.009 260.477516,77.009 C254.821266,77.009 249.708016,72.89125 249.708016,65.6965 L249.708016,65.606 C249.708016,58.366 254.911766,54.2935 260.477516,54.2935 C264.233266,54.2935 266.450516,55.87725 268.305766,57.9135 L268.305766,54.746 L275.183766,54.746 L275.183766,73.52475 C275.183766,77.86875 274.143016,81.03625 272.106766,83.0725 C269.844266,85.335 266.360016,86.3305 261.654016,86.3305 Z M262.468516,71.3075 C265.817016,71.3075 268.396266,68.99975 268.396266,65.6965 L268.396266,65.606 C268.396266,62.30275 265.817016,59.995 262.468516,59.995 C259.120016,59.995 256.586016,62.30275 256.586016,65.606 L256.586016,65.6965 C256.586016,69.045 259.120016,71.3075 262.468516,71.3075 Z M287.499947,79.4525 C282.929697,79.4525 279.173947,76.828 279.173947,72.0315 L279.173947,71.941 C279.173947,66.64675 283.201197,64.20325 288.947947,64.20325 C291.391447,64.20325 293.156197,64.6105 294.875697,65.19875 L294.875697,64.7915 C294.875697,61.94075 293.110947,60.357 289.671947,60.357 C287.047447,60.357 285.192197,60.85475 282.974947,61.66925 L281.255447,56.42025 C283.925197,55.24375 286.549697,54.4745 290.667447,54.4745 C294.423197,54.4745 297.138197,55.47 298.857697,57.1895 C300.667697,58.9995 301.482197,61.66925 301.482197,64.92725 L301.482197,79 L294.830447,79 L294.830447,76.3755 C293.156197,78.23075 290.848447,79.4525 287.499947,79.4525 Z M289.581447,74.70125 C292.794197,74.70125 294.966197,72.9365 294.966197,70.44775 L294.966197,69.226 C293.789697,68.683 292.251197,68.321 290.576947,68.321 C287.635697,68.321 285.825697,69.4975 285.825697,71.6695 L285.825697,71.76 C285.825697,73.61525 287.364197,74.70125 289.581447,74.70125 Z M318.142377,79.543 C310.857127,79.543 305.517627,73.932 305.517627,67.00875 L305.517627,66.91825 C305.517627,59.995 310.811877,54.2935 318.232877,54.2935 C322.803127,54.2935 325.653877,55.832 327.916377,58.366 L323.708127,62.891 C322.169627,61.262 320.631127,60.22125 318.187627,60.22125 C314.748627,60.22125 312.305127,63.253 312.305127,66.82775 L312.305127,66.91825 C312.305127,70.62875 314.703377,73.61525 318.459127,73.61525 C320.766877,73.61525 322.350627,72.61975 324.024877,71.036 L328.052127,75.1085 C325.699127,77.68775 322.984127,79.543 318.142377,79.543 Z M331.951808,52.07625 L331.951808,45.9675 L339.191808,45.9675 L339.191808,52.07625 L331.951808,52.07625 Z M332.132808,79 L332.132808,54.746 L339.010808,54.746 L339.010808,79 L332.132808,79 Z M356.666489,79.543 C349.154989,79.543 343.589239,73.97725 343.589239,67.00875 L343.589239,66.91825 C343.589239,59.94975 349.200239,54.2935 356.756989,54.2935 C364.268489,54.2935 369.834239,59.85925 369.834239,66.82775 L369.834239,66.91825 C369.834239,73.88675 364.223239,79.543 356.666489,79.543 Z M356.756989,73.61525 C360.693739,73.61525 363.046739,70.5835 363.046739,67.00875 L363.046739,66.91825 C363.046739,63.3435 360.467489,60.22125 356.666489,60.22125 C352.729739,60.22125 350.376739,63.253 350.376739,66.82775 L350.376739,66.91825 C350.376739,70.493 352.955989,73.61525 356.756989,73.61525 Z M374.09592,79 L374.09592,54.746 L380.97392,54.746 L380.97392,58.185 C382.55767,56.14875 384.59392,54.2935 388.07817,54.2935 C393.28192,54.2935 396.31367,57.7325 396.31367,63.29825 L396.31367,79 L389.43567,79 L389.43567,65.47025 C389.43567,62.21225 387.89717,60.538 385.27267,60.538 C382.64817,60.538 380.97392,62.21225 380.97392,65.47025 L380.97392,79 L374.09592,79 Z" id="Investigación" fill="#005AA9"></path>
                <path d="M353.5625,51 L350.5625,51 L350.5625,45.9675 L353.5625,45.9675 C358.752467,45.9675 363.046739,43.9245605 366.340088,41.7475095 L368.663818,40 L372.109539,45.5709665 L369.527587,47.0985538 C365.110096,49.7121202 359.772273,51 353.5625,51 Z" id="Path-2" fill="#005AA9" fill-rule="nonzero" transform="translate(361.336020, 45.500000) rotate(-3.000000) translate(-361.336020, -45.500000) "></path>
                <g id="icon">
                    <mask id="mask-2" fill="white">
                        <use xlink:href="#path-1"></use>
                    </mask>
                    <use id="Rectangle" fill="#005AA9" fill-rule="nonzero" xlink:href="#path-1"></use>
                    <g mask="url(#mask-2)" fill="#FFFFFF" fill-rule="nonzero">
                        <g transform="translate(-12.000000, 2.000000)">
                            <path d="M44.1504641,9.9512996 L62.6571429,42.6869948 L62.6571429,5.01213001 C61.8543807,4.54775463 61.3142857,3.67980743 61.3142857,2.68571429 C61.3142857,1.20243524 62.516721,0 64,0 C65.483279,0 66.6857143,1.20243524 66.6857143,2.68571429 C66.6857143,3.67980743 66.1456193,4.54775463 65.3428579,5.01212739 L65.3428571,42.6869948 L83.8495359,9.9512996 C83.3943682,9.14089497 83.3591873,8.11745824 83.8447107,7.25685421 C84.5735306,5.96500024 86.1996669,5.52925694 87.4767879,6.28359429 C88.7539089,7.03793165 89.1983948,8.69669746 88.469575,9.98855143 C87.9031322,10.9925874 86.794667,11.4794911 85.7292942,11.2924739 L67.2529087,43.9745846 L99.7145507,24.8396309 C99.7255763,23.9101993 100.20685,23.0062787 101.057652,22.5037486 C102.334773,21.7494113 103.960909,22.1851546 104.689729,23.4770085 C105.418549,24.7688625 104.974063,26.4276283 103.696942,27.1819657 C102.704648,27.7680688 101.501655,27.6357274 100.672564,26.9415923 L68.922422,45.6571429 L105.98787,45.6571429 C106.452245,44.8543807 107.320193,44.3142857 108.314286,44.3142857 C109.797565,44.3142857 111,45.516721 111,47 C111,48.483279 109.797565,49.6857143 108.314286,49.6857143 C107.320193,49.6857143 106.452245,49.1456193 105.987873,48.3428579 L68.922422,48.3428571 L100.672564,67.0584077 C101.501655,66.3642726 102.704648,66.2319312 103.696942,66.8180343 C104.974063,67.5723717 105.418549,69.2311375 104.689729,70.5229915 C103.960909,71.8148454 102.334773,72.2505887 101.057652,71.4962514 C100.20685,70.9937213 99.7255763,70.0898007 99.7145527,69.1603712 L67.2529087,50.0254154 L85.7292942,82.7075261 C86.794667,82.5205089 87.9031322,83.0074126 88.469575,84.0114486 C89.1983948,85.3033025 88.7539089,86.9620683 87.4767879,87.7164057 C86.1996669,88.4707431 84.5735306,88.0349998 83.8447107,86.7431458 C83.3591873,85.8825418 83.3943682,84.859105 83.8495359,84.0487004 L65.3428571,51.3130052 L65.3428571,88.98787 C66.1456193,89.4522454 66.6857143,90.3201926 66.6857143,91.3142857 C66.6857143,92.7975648 65.483279,94 64,94 C62.516721,94 61.3142857,92.7975648 61.3142857,91.3142857 C61.3142857,90.3201926 61.8543807,89.4522454 62.6571421,88.9878726 L62.6571429,48.8995097 L28.2854493,69.1603691 C28.2744237,70.0898007 27.7931499,70.9937213 26.9423479,71.4962514 C25.6652269,72.2505887 24.0390905,71.8148454 23.3102707,70.5229915 C22.5814508,69.2311375 23.0259367,67.5723717 24.3030577,66.8180343 C25.295352,66.2319312 26.4983447,66.3642726 27.3274357,67.0584077 L59.077578,48.3428571 L22.01213,48.3428571 C21.5477546,49.1456193 20.6798074,49.6857143 19.6857143,49.6857143 C18.2024352,49.6857143 17,48.483279 17,47 C17,45.516721 18.2024352,44.3142857 19.6857143,44.3142857 C20.6798074,44.3142857 21.5477546,44.8543807 22.0121274,45.6571421 L59.077578,45.6571429 L27.3274357,26.9415923 C26.4983447,27.6357274 25.295352,27.7680688 24.3030577,27.1819657 C23.0259367,26.4276283 22.5814508,24.7688625 23.3102707,23.4770085 C24.0390905,22.1851546 25.6652269,21.7494113 26.9423479,22.5037486 C27.7931499,23.0062787 28.2744237,23.9101993 28.2854473,24.8396288 L60.7470913,43.9745846 L42.2707058,11.2924739 C41.205333,11.4794911 40.0968678,10.9925874 39.530425,9.98855143 C38.8016052,8.69669746 39.2460911,7.03793165 40.5232121,6.28359429 C41.8003331,5.52925694 43.4264694,5.96500024 44.1552893,7.25685421 C44.6408127,8.11745824 44.6056318,9.14089497 44.1504641,9.9512996 Z" id="Combined-Shape"></path>
                            <path d="M50.1023166,21.0293254 L63.0474074,43.3951332 L63.0474074,17.5693229 C62.4853265,17.2449851 62.1071605,16.6387733 62.1071605,15.9444557 C62.1071605,14.9084698 62.9490863,14.0686373 63.9876543,14.0686373 C65.0262224,14.0686373 65.8681481,14.9084698 65.8681481,15.9444557 C65.8681481,16.6387733 65.4899821,17.2449851 64.9279012,17.5693229 L64.9279012,43.3951332 L77.8729921,21.0293254 C77.5487889,20.4680989 77.5251489,19.7544912 77.873173,19.1531945 C78.392457,18.2560045 79.542549,17.9486044 80.4419753,18.4665974 C81.3414016,18.9845903 81.6495679,20.1318228 81.1302838,21.0290128 C80.7822597,21.6303095 80.1508969,21.9666914 79.5015475,21.9672345 L66.5564567,44.3330424 L88.9780117,31.4201372 C88.9785561,30.7724022 89.3157765,30.1426092 89.9185719,29.7954504 C90.8179983,29.2774575 91.9680902,29.5848575 92.4873743,30.4820476 C93.0066583,31.3792376 92.6984921,32.5264701 91.7990658,33.0444631 C91.1962703,33.3916219 90.480884,33.3680406 89.9182586,33.0446435 L67.4967036,45.9575487 L93.3868852,45.9575487 C93.7120315,45.3968653 94.3197543,45.0196395 95.0158025,45.0196395 C96.0543705,45.0196395 96.8962963,45.859472 96.8962963,46.8954578 C96.8962963,47.9314437 96.0543705,48.7712761 95.0158025,48.7712761 C94.3197543,48.7712761 93.7120315,48.3940504 93.3868852,47.833367 L67.4967036,47.833367 L89.9182586,60.7462721 C90.480884,60.422875 91.1962703,60.3992938 91.7990658,60.7464526 C92.6984921,61.2644455 93.0066583,62.411678 92.4873743,63.3088681 C91.9680902,64.2060581 90.8179983,64.5134581 89.9185719,63.9954652 C89.3157765,63.6483064 88.9785561,63.0185134 88.9780117,62.3707784 L66.5564567,49.4578733 L79.5015475,71.8236811 C80.1508969,71.8242242 80.7822597,72.1606061 81.1302838,72.7619028 C81.6495679,73.6590929 81.3414016,74.8063254 80.4419753,75.3243183 C79.542549,75.8423112 78.392457,75.5349112 77.873173,74.6377211 C77.5251489,74.0364244 77.5487889,73.3228167 77.8729921,72.7615903 L64.9279012,50.3957824 L64.9279012,76.2215928 C65.4899821,76.5459306 65.8681481,77.1521424 65.8681481,77.84646 C65.8681481,78.8824458 65.0262224,79.7222783 63.9876543,79.7222783 C62.9490863,79.7222783 62.1071605,78.8824458 62.1071605,77.84646 C62.1071605,77.1521424 62.4853265,76.5459306 63.0474074,76.2215928 L63.0474074,48.5199641 L38.997297,62.3707784 C38.9967525,63.0185134 38.6595321,63.6483064 38.0567367,63.9954652 C37.1573104,64.5134581 36.0072184,64.2060581 35.4879344,63.3088681 C34.9686503,62.411678 35.2768166,61.2644455 36.1762429,60.7464526 C36.7790383,60.3992938 37.4944247,60.422875 38.05705,60.7462721 L60.4786051,47.833367 L34.5884234,47.833367 C34.2632772,48.3940504 33.6555544,48.7712761 32.9595062,48.7712761 C31.9209381,48.7712761 31.0790123,47.9314437 31.0790123,46.8954578 C31.0790123,45.859472 31.9209381,45.0196395 32.9595062,45.0196395 C33.6555544,45.0196395 34.2632772,45.3968653 34.5884234,45.9575487 L60.4786051,45.9575487 L38.05705,33.0446435 C37.4944247,33.3680406 36.7790383,33.3916219 36.1762429,33.0444631 C35.2768166,32.5264701 34.9686503,31.3792376 35.4879344,30.4820476 C36.0072184,29.5848575 37.1573104,29.2774575 38.0567367,29.7954504 C38.6595321,30.1426092 38.9967525,30.7724022 38.997297,31.4201372 L61.418852,44.3330424 L48.4737612,21.9672345 C47.8244117,21.9666914 47.1930489,21.6303095 46.8450248,21.0290128 C46.3257408,20.1318228 46.633907,18.9845903 47.5333333,18.4665974 C48.4327597,17.9486044 49.5828516,18.2560045 50.1021357,19.1531945 C50.4501598,19.7544912 50.4265198,20.4680989 50.1023166,21.0293254 Z" id="Combined-Shape" transform="translate(63.987654, 46.895458) rotate(10.000000) translate(-63.987654, -46.895458) "></path>
                            <path d="M62.5113665,44.7954746 L63.4412857,43 L67,44.8766848 L66.0700808,46.6721593 C53.1705509,71.578387 32.1866768,89.1469791 3.21720247,99.3333589 L1.32131375,100 L0,96.1738766 L1.89588872,95.5072355 C29.9262881,85.6510575 50.0985328,68.7619961 62.5113665,44.7954746 Z" id="Path-3"></path>
                        </g>
                    </g>
                </g>
                <path d="M353.5625,51 L350.5625,51 L350.5625,45.9675 L353.5625,45.9675 C358.752467,45.9675 363.046739,43.9245605 366.340088,41.7475095 L368.663818,40 L372.109539,45.5709665 L369.527587,47.0985538 C365.110096,49.7121202 359.772273,51 353.5625,51 Z" id="Path-2" fill="#005AA9" fill-rule="nonzero" transform="translate(361.336020, 45.500000) rotate(-3.000000) translate(-361.336020, -45.500000) "></path>
            </g>
        </g>
    </g>
</svg>