<svg width="207" height="33" viewBox="0 0 207 33" version="1.1" xmlns="http://www.w3.org/2000/svg"><title>Imported Layers</title><g id="Welcome" stroke="none" stroke-width="1" fill="none" fill-rule="evenodd"><g id="Mobile-Portrait"><g id="Imported-Layers"><path d="M34.728 18.497c.02 1.585 1.247 2.858 3.048 2.858 1.343 0 2.216-.746 2.827-1.767l1.346.71c-.89 1.532-2.395 2.405-4.292 2.405-2.773 0-4.552-1.948-4.552-4.407 0-2.53 1.602-4.626 4.51-4.626 2.987 0 4.57 2.275 4.413 4.827h-7.302zm5.64-1.24c-.218-1.238-1.345-2.24-2.732-2.24-1.364 0-2.63 1.002-2.828 2.24h5.56z" id="Fill-1" fill="#36588F"/><path d="M72.22 18.497c.018 1.585 1.245 2.858 3.047 2.858 1.345 0 2.214-.746 2.827-1.767l1.346.71c-.89 1.532-2.394 2.405-4.292 2.405-2.77 0-4.552-1.948-4.552-4.407 0-2.53 1.603-4.626 4.513-4.626 2.984 0 4.568 2.275 4.41 4.827h-7.3zm5.638-1.24c-.217-1.238-1.346-2.24-2.73-2.24-1.365 0-2.63 1.002-2.83 2.24h5.56z" id="Fill-2" fill="#36588F"/><path d="M27.46 16.68c2.297-.173 3.74-1.576 3.74-3.562 0-2.91-2.63-3.56-5.46-3.56H23.58V19.62l1.663 1.108V16.8h.415l4.51 5.666h2.038L27.46 16.68zm-2.215-1.15v-4.638h.494c1.998 0 3.798.206 3.798 2.33 0 2.002-1.9 2.31-3.78 2.31h-.513z" id="Fill-3" fill="#36588F"/><path d="M66.687 9.588v5.54h-.04c-.75-.91-1.938-1.458-3.185-1.458-2.79 0-4.473 2.095-4.473 4.534 0 2.368 1.72 4.5 4.452 4.5 1.267 0 2.434-.493 3.206-1.422h.04v1.184h1.582V9.588h-1.583zM63.66 21.355c-1.98 0-3.047-1.583-3.047-3.26 0-1.6 1.188-3.078 3.026-3.078 1.958 0 3.126 1.385 3.126 3.096 0 1.73-1.068 3.242-3.105 3.242z" id="Fill-4" fill="#36588F"/><path d="M51.38 9.588v5.54h-.04c-.753-.91-1.94-1.458-3.185-1.458-2.79 0-4.472 2.095-4.472 4.534 0 2.368 1.722 4.5 4.45 4.5 1.268 0 2.436-.493 3.207-1.422h.04v1.184h1.583V9.588H51.38zm-3.028 11.767c-1.978 0-3.046-1.583-3.046-3.26 0-1.6 1.187-3.078 3.027-3.078 1.96 0 3.127 1.385 3.127 3.096 0 1.73-1.07 3.242-3.108 3.242z" id="Fill-5" fill="#36588F"/><path d="M92.684 14.152h.046c.722-.906 1.664-1.41 2.934-1.41 2.847 0 3.504 1.895 3.504 4.11v5.626h-1.75v-5.342c0-1.532-.134-2.903-2.17-2.903-2.408 0-2.564 2.055-2.564 3.75v4.495h-1.75v-9.475h1.75v1.15" id="Fill-6" fill="#EB8B2D"/><path d="M112.98 18.084c.025 1.753 1.382 3.164 3.376 3.164 1.49 0 2.45-.827 3.13-1.954l1.49.785c-.985 1.693-2.65 2.66-4.753 2.66-3.066 0-5.036-2.158-5.036-4.878 0-2.803 1.772-5.12 4.993-5.12 3.306 0 5.06 2.52 4.883 5.342h-8.082zm6.245-1.372c-.242-1.37-1.49-2.48-3.024-2.48-1.51 0-2.91 1.11-3.13 2.48h6.155z" id="Fill-7" fill="#EB8B2D"/><path d="M134.217 22.478h-1.753v-7.983h-1.073v-1.492h1.074V9.597h1.753v3.406h2.445l-.605 1.492h-1.84v7.983" id="Fill-8" fill="#EB8B2D"/><path d="M140.853 9.436c0 .644-.57 1.148-1.25 1.148s-1.248-.504-1.248-1.148c0-.624.57-1.15 1.248-1.15.68 0 1.25.526 1.25 1.15zm-2.126 3.567h1.754v9.475h-1.753v-9.475z" id="Fill-9" fill="#EB8B2D"/><path d="M166.205 22.478h-1.753v-1.31h-.044c-.898 1.048-2.103 1.572-3.547 1.572-3.022 0-4.928-2.358-4.928-4.978 0-2.703 1.863-5.02 4.952-5.02 1.4 0 2.67.604 3.524 1.612h.044v-1.35h1.753v9.474zm-8.477-4.838c0 1.854 1.183 3.608 3.373 3.608 2.256 0 3.44-1.67 3.44-3.588 0-1.894-1.293-3.427-3.462-3.427-2.035 0-3.35 1.634-3.35 3.407z" id="Fill-10" fill="#EB8B2D"/><path d="M177.292 15.825h-.043c-.812-.947-1.82-1.592-3.2-1.592-2.123 0-3.636 1.613-3.636 3.507 0 1.876 1.403 3.508 3.55 3.508 1.466 0 2.496-.604 3.35-1.632h.043v2.157c-1.007.625-2.035.967-3.264.967-3.11 0-5.474-2.136-5.474-5 0-2.823 2.475-5 5.495-5 1.117 0 2.26.344 3.177.95v2.135" id="Fill-11" fill="#EB8B2D"/><path d="M182.44 9.436c0 .644-.57 1.148-1.247 1.148-.68 0-1.25-.504-1.25-1.148 0-.624.57-1.15 1.25-1.15.676 0 1.246.526 1.246 1.15zm-2.124 3.567h1.753v9.475h-1.754v-9.475z" id="Fill-12" fill="#EB8B2D"/><path d="M184.674 17.762c0-2.783 2.388-5.02 5.41-5.02 3.02 0 5.41 2.237 5.41 5.02 0 2.78-2.41 4.978-5.41 4.978s-5.41-2.198-5.41-4.978zm1.752-.022c0 1.937 1.49 3.508 3.658 3.508 2.17 0 3.657-1.57 3.657-3.508 0-1.915-1.487-3.507-3.656-3.507-2.168 0-3.658 1.592-3.658 3.507z" id="Fill-13" fill="#EB8B2D"/><path d="M199.753 14.152h.044c.724-.906 1.664-1.41 2.934-1.41 2.847 0 3.506 1.895 3.506 4.11v5.626h-1.753v-5.342c0-1.532-.13-2.903-2.167-2.903-2.41 0-2.563 2.055-2.563 3.75v4.495h-1.75v-9.475h1.75v1.15" id="Fill-14" fill="#EB8B2D"/><path d="M151.573 13.003v1.35h-.042c-.83-1.028-2.08-1.612-3.503-1.612-3.044 0-4.97 2.38-4.97 5.042 0 2.64 1.903 4.958 4.904 4.958 1.38 0 2.74-.583 3.57-1.57h.043v1.126c0 2.137-.59 3.973-3.306 3.973-.106 0-.204-.017-.307-.026v1.503c.11.005.218.014.328.014 1.536 0 3.024-.545 3.987-1.673 1.05-1.25 1.05-2.56 1.05-4.073v-9.01h-1.752zm-3.35 8.245c-2.19 0-3.37-1.754-3.37-3.608 0-1.773 1.312-3.407 3.348-3.407 2.17 0 3.462 1.533 3.462 3.427 0 1.917-1.182 3.588-3.44 3.588z" id="Fill-15" fill="#EB8B2D"/><path d="M85.654 9.6h1.838v12.878h-1.838V9.6z" id="Fill-16" fill="#EB8B2D"/><path d="M194.74 7.43l-.286.203c-.19.126-.424.314-.775.53l-.567.346c-.196.13-.42.234-.644.35-.23.112-.453.248-.708.342-.248.1-.5.206-.753.31-.26.084-.522.167-.778.247-.255.09-.518.133-.768.196-.25.053-.488.118-.72.145l-.652.096c-.404.06-.743.063-.976.086l-.373.03-.067-.786s.126-.02.347-.05c.22-.037.54-.06.91-.14.184-.042.385-.084.596-.13.214-.036.427-.113.65-.178.223-.072.46-.124.682-.222l.685-.27.654-.324c.222-.1.414-.236.613-.35.194-.12.39-.225.55-.35.168-.12.325-.23.47-.336.29-.203.54-.43.71-.563l.272-.22.926 1.038" id="Fill-17" fill="#EB8B2D"/><path d="M127.518 16.934c-1.204-.464-2.386-.786-2.386-1.652 0-.605.658-1.05 1.27-1.05.636 0 1.163.464 1.402.968l1.468-.705c-.46-.988-1.555-1.754-2.738-1.754-1.664 0-3.066 1.09-3.066 2.68 0 2.986 4.643 2.26 4.643 4.376 0 .868-.72 1.452-1.663 1.452-.036 0-.066-.005-.1-.006v1.493c.028 0 .052.005.08.005 1.903 0 3.48-1.29 3.48-3.084 0-1.593-1.183-2.257-2.39-2.722" id="Fill-18" fill="#EB8B2D"/><path d="M105.746 22.74l4.856-9.737h-1.973l-3.066 6.37-3.065-6.37h-1.994l4.875 9.737h.366" id="Fill-19" fill="#EB8B2D"/><path d="M14.442 17.4l.368-2.903.672.084-3.366 17.896c-.02.103-.125.174-.238.157-.11-.017-.188-.114-.17-.217l3.103-17.932.675.084-.343 2.904c-.02.18-.195.306-.388.288-.193-.02-.333-.18-.312-.357V17.4" id="Fill-20" fill="#36588F"/><path d="M15.3 14.614l-.306-.162 6.985-11.16.303.16L15.3 14.614" id="Fill-21" fill="#36588F"/><path d="M22.8 3.77c.22-.352.087-.798-.293-1-.38-.202-.865-.08-1.085.27-.22.348-.087.795.292.998.38.2.866.08 1.086-.27" id="Fill-22" fill="#36588F"/><path d="M14.97 14.533l-.023-12.886.353-.002.023 12.888h-.352" id="Fill-23" fill="#36588F"/><path d="M15.92 1.68c-.003-.403-.36-.73-.8-.73-.436.002-.792.33-.79.734 0 .403.357.73.795.73.438-.002.794-.33.794-.733" id="Fill-24" fill="#36588F"/><path d="M14.994 14.615L7.964 3.452l.304-.163L15.3 14.45l-.306.163" id="Fill-25" fill="#36588F"/><path d="M8.822 3.036c-.22-.35-.705-.47-1.085-.265-.38.203-.51.65-.29 1 .22.35.707.468 1.087.265.38-.202.51-.65.288-1" id="Fill-26" fill="#36588F"/><path d="M15.06 14.673L2.895 8.235l.175-.28 12.164 6.437-.174.28" id="Fill-27" fill="#36588F"/><path d="M3.413 7.48c-.38-.202-.867-.08-1.086.27-.217.35-.087.796.294.998.38.2.867.08 1.086-.27.218-.35.087-.798-.293-1" id="Fill-28" fill="#36588F"/><path d="M1.106 14.71v-.326l14.04-.013v.325l-14.04.014" id="Fill-29" fill="#36588F"/><path d="M1.145 13.814c-.437.002-.793.33-.793.733 0 .404.357.73.795.73.438 0 .794-.327.794-.73 0-.405-.356-.733-.795-.733" id="Fill-30" fill="#36588F"/><path d="M3.07 21.137l-.176-.28 12.164-6.465.176.28L3.07 21.138" id="Fill-31" fill="#36588F"/><path d="M2.62 20.346c-.38.2-.51.65-.293.998.22.35.706.47 1.086.268.38-.202.51-.65.29-1-.22-.35-.705-.47-1.084-.266" id="Fill-32" fill="#36588F"/><path d="M8.268 25.803l-.304-.162 7.03-11.188.306.163-7.032 11.188" id="Fill-33" fill="#36588F"/><path d="M7.447 25.324c-.22.35-.09.797.29 1 .38.202.865.082 1.085-.268.22-.35.09-.796-.29-1-.38-.2-.865-.082-1.085.268" id="Fill-34" fill="#36588F"/><path d="M14.987 14.467l3.878-7.71.195.082-3.753 7.76-.32-.133" id="Fill-35" fill="#36588F"/><path d="M19.433 7.022c.122-.245.004-.534-.263-.645-.266-.11-.58-.002-.7.242-.12.245-.003.533.263.645.267.112.58.003.7-.243" id="Fill-36" fill="#36588F"/><path d="M14.973 14.55l-.842-8.472.213-.02.98 8.46-.35.03" id="Fill-37" fill="#36588F"/><path d="M14.766 6.045c-.028-.268-.287-.463-.58-.437-.29.026-.502.265-.474.532.03.268.29.465.58.437.29-.026.503-.264.474-.532" id="Fill-38" fill="#36588F"/><path d="M15.003 14.627L9.66 7.667l.173-.116 5.458 6.888-.287.19" id="Fill-39" fill="#36588F"/><path d="M10.193 7.344a.56.56 0 0 0-.74-.112.462.462 0 0 0-.12.68c.17.22.5.27.737.112a.463.463 0 0 0 .123-.68" id="Fill-40" fill="#36588F"/><path d="M15.075 14.68L6.648 11.1l.09-.178 8.48 3.463-.143.295" id="Fill-41" fill="#36588F"/><path d="M6.936 10.578c-.267-.11-.58-.002-.7.242-.122.246-.004.535.262.646.267.11.58.002.702-.243.12-.246 0-.534-.264-.645" id="Fill-42" fill="#36588F"/><path d="M15.164 14.695l-9.254.766-.02-.196 9.24-.893.034.325" id="Fill-43" fill="#36588F"/><path d="M5.876 14.875c-.292.026-.505.265-.477.533.027.268.286.463.578.437.29-.026.504-.264.476-.532-.03-.268-.29-.464-.578-.438" id="Fill-44" fill="#36588F"/><path d="M15.25 14.665l-7.615 4.912-.124-.16 7.535-5.016.204.265" id="Fill-45" fill="#36588F"/><path d="M7.29 19.085a.463.463 0 0 0-.126.68c.17.22.5.27.738.114a.463.463 0 0 0 .125-.68.56.56 0 0 0-.738-.115" id="Fill-46" fill="#36588F"/><path d="M15.307 14.6l-3.938 7.748-.195-.08 3.812-7.803.32.135" id="Fill-47" fill="#36588F"/><path d="M10.802 22.082c-.122.244-.006.534.26.646.266.112.58.004.702-.24.122-.245.007-.534-.26-.646-.266-.113-.58-.005-.702.24" id="Fill-48" fill="#36588F"/><path d="M14.998 14.494l1.74-5.933.49.13-1.932 5.882-.298-.078" id="Fill-49" fill="#36588F"/><path d="M17.68 8.844c.11-.36-.116-.734-.505-.836-.39-.103-.797.105-.91.464-.112.358.115.734.506.835.39.104.798-.105.91-.463" id="Fill-50" fill="#36588F"/><path d="M14.997 14.568l-1.723-5.943.492-.113 1.53 5.987-.3.068" id="Fill-51" fill="#36588F"/><path d="M14.24 8.436c-.098-.362-.497-.58-.89-.49-.394.09-.633.458-.534.82.1.362.498.582.89.492.394-.092.634-.46.535-.822" id="Fill-52" fill="#36588F"/><path d="M15.036 14.632l-4.73-4.36.364-.324 4.588 4.485-.222.2" id="Fill-53" fill="#36588F"/><path d="M11.042 9.664a.78.78 0 0 0-1.04-.015.64.64 0 0 0-.015.957.78.78 0 0 0 1.04.013.64.64 0 0 0 .015-.956" id="Fill-54" fill="#36588F"/><path d="M15.104 14.67l-6.473-1.6.14-.45 6.42 1.776-.086.274" id="Fill-55" fill="#36588F"/><path d="M8.938 12.204c-.39-.103-.797.106-.91.465-.11.36.117.732.507.834.39.103.797-.106.907-.465.112-.36-.114-.735-.504-.836" id="Fill-56" fill="#36588F"/><path d="M15.185 14.672L8.7 16.26l-.123-.453 6.532-1.412.075.277" id="Fill-57" fill="#36588F"/><path d="M8.496 15.37c-.393.09-.633.458-.534.82.098.362.498.583.89.49.394-.09.633-.457.535-.82-.1-.36-.497-.582-.89-.49" id="Fill-58" fill="#36588F"/><path d="M15.254 14.636l-4.762 4.356-.352-.336 4.9-4.225.214.206" id="Fill-59" fill="#36588F"/><path d="M9.833 18.314a.638.638 0 0 0-.02.956.78.78 0 0 0 1.04.018c.292-.26.3-.688.02-.957a.78.78 0 0 0-1.04-.016" id="Fill-60" fill="#36588F"/><path d="M15.296 14.573l-1.765 5.96-.487-.13 1.955-5.91.298.08" id="Fill-61" fill="#36588F"/><path d="M12.592 20.248c-.113.36.113.734.502.838.39.104.797-.104.91-.462.112-.36-.113-.734-.502-.837-.39-.104-.797.103-.91.46" id="Fill-62" fill="#36588F"/><path d="M17.71 14.492c0-1.285-1.13-2.327-2.53-2.327-1.398 0-2.53 1.042-2.53 2.327 0 1.29 1.132 2.33 2.53 2.33 1.4 0 2.53-1.04 2.53-2.33" id="Fill-63" fill="#36588F"/><path d="M15.837 17.09a.326.326 0 0 1-.317-.222l-.69-2.252c-.05-.162.05-.33.227-.375.176-.046.358.05.408.21l.69 2.252c.05.162-.05.33-.227.376a.386.386 0 0 1-.09.012" id="Fill-64" fill="#36588F"/><path d="M16.987 16.5a.345.345 0 0 1-.232-.086l-1.84-1.665a.287.287 0 0 1-.004-.43c.13-.12.34-.12.47-.004l1.838 1.664c.13.117.132.31.005.43a.344.344 0 0 1-.236.09" id="Fill-65" fill="#36588F"/><path d="M17.662 15.462a.334.334 0 0 1-.086-.01l-2.515-.625c-.176-.043-.28-.21-.232-.373.047-.163.23-.26.405-.215l2.515.623c.175.045.28.21.233.373a.33.33 0 0 1-.318.226" id="Fill-66" fill="#36588F"/><path d="M15.147 14.837a.327.327 0 0 1-.32-.23c-.045-.163.062-.328.24-.37l2.533-.584c.18-.042.357.056.4.22.046.164-.062.328-.24.37l-2.533.585a.357.357 0 0 1-.08.01" id="Fill-67" fill="#36588F"/><path d="M15.147 14.837a.345.345 0 0 1-.24-.095.288.288 0 0 1 .013-.43l1.895-1.644a.35.35 0 0 1 .467.012.29.29 0 0 1-.013.432l-1.896 1.642a.342.342 0 0 1-.227.083" id="Fill-68" fill="#36588F"/><path d="M15.147 14.837a.335.335 0 0 1-.098-.013c-.175-.05-.273-.22-.22-.38l.767-2.266c.053-.16.24-.25.413-.2.174.05.272.22.217.38l-.763 2.265a.33.33 0 0 1-.317.214" id="Fill-69" fill="#36588F"/><path d="M15.147 14.837a.327.327 0 0 1-.323-.238l-.55-2.284c-.04-.164.073-.326.252-.363.178-.036.354.068.394.23l.55 2.284c.04.164-.073.327-.25.364a.51.51 0 0 1-.073.007" id="Fill-70" fill="#36588F"/><path d="M15.147 14.837a.348.348 0 0 1-.243-.097l-1.7-1.694a.29.29 0 0 1 .02-.43.35.35 0 0 1 .467.016l1.7 1.695a.287.287 0 0 1-.02.43.342.342 0 0 1-.223.08" id="Fill-71" fill="#36588F"/><path d="M15.147 14.837a.368.368 0 0 1-.095-.012l-2.373-.655c-.177-.048-.276-.22-.224-.38.053-.16.238-.25.412-.203l2.374.655c.175.048.274.217.222.378a.33.33 0 0 1-.317.217" id="Fill-72" fill="#36588F"/><path d="M12.753 15.393a.325.325 0 0 1-.32-.23c-.045-.163.062-.328.24-.37l2.393-.555c.178-.042.357.058.402.22.044.163-.063.328-.24.37l-2.393.556a.377.377 0 0 1-.082.01" id="Fill-73" fill="#36588F"/><path d="M13.393 16.45a.344.344 0 0 1-.233-.09.287.287 0 0 1 0-.43l1.753-1.613a.35.35 0 0 1 .467 0c.13.12.13.313 0 .43l-1.752 1.614a.35.35 0 0 1-.235.09" id="Fill-74" fill="#36588F"/><path d="M15.12 17.48c-.196-.002-.35-.148-.35-.327l.025-2.623c.002-.18.155-.325.355-.32.194 0 .35.147.35.326l-.026 2.622c0 .178-.158.322-.353.322" id="Fill-75" fill="#36588F"/><path d="M16.556 17.126a.357.357 0 0 1-.306-.163l-1.41-2.27c-.096-.155-.037-.352.133-.44a.37.37 0 0 1 .48.12l1.408 2.27c.097.154.038.352-.13.44a.38.38 0 0 1-.174.043" id="Fill-76" fill="#36588F"/><path d="M17.604 16.16a.392.392 0 0 1-.176-.042l-2.457-1.304c-.168-.09-.226-.288-.128-.443a.368.368 0 0 1 .48-.118l2.458 1.304c.17.09.227.288.13.442a.36.36 0 0 1-.306.163" id="Fill-77" fill="#36588F"/><path d="M15.147 14.857c-.193 0-.35-.143-.352-.323 0-.18.156-.324.35-.324l2.842-.016c.195 0 .352.144.354.322.002.18-.155.325-.35.326l-2.842.015" id="Fill-78" fill="#36588F"/><path d="M15.147 14.857a.358.358 0 0 1-.303-.16c-.1-.154-.043-.353.124-.443l2.458-1.334a.37.37 0 0 1 .48.114.31.31 0 0 1-.122.444l-2.46 1.334a.363.363 0 0 1-.177.045" id="Fill-79" fill="#36588F"/><path d="M15.147 14.857a.376.376 0 0 1-.173-.042c-.17-.088-.23-.285-.133-.44l1.41-2.3a.366.366 0 0 1 .478-.125c.17.088.23.286.134.44l-1.408 2.303a.36.36 0 0 1-.307.164" id="Fill-80" fill="#36588F"/><path d="M15.147 14.857c-.193 0-.35-.143-.352-.32l-.025-2.654c0-.18.154-.325.35-.328.196 0 .353.143.354.32l.026 2.656c0 .18-.156.326-.35.327h-.003" id="Fill-81" fill="#36588F"/><path d="M15.147 14.857a.36.36 0 0 1-.305-.16l-1.457-2.3c-.098-.156-.042-.354.127-.444a.368.368 0 0 1 .48.116l1.46 2.3c.098.155.04.352-.128.442a.362.362 0 0 1-.177.045" id="Fill-82" fill="#36588F"/><path d="M15.147 14.857a.37.37 0 0 1-.176-.043l-2.507-1.334c-.168-.09-.225-.288-.127-.444a.368.368 0 0 1 .48-.117l2.507 1.332c.17.09.227.287.13.443a.358.358 0 0 1-.306.162" id="Fill-83" fill="#36588F"/><path d="M15.147 14.857h-.003l-2.89-.015c-.193 0-.35-.147-.35-.326 0-.178.16-.322.352-.322h.003l2.888.016c.195 0 .352.145.352.324 0 .18-.16.323-.353.323" id="Fill-84" fill="#36588F"/><path d="M12.64 16.16a.36.36 0 0 1-.307-.163.31.31 0 0 1 .134-.442l2.507-1.305a.37.37 0 0 1 .48.124c.096.156.035.353-.134.44l-2.507 1.305a.38.38 0 0 1-.173.04" id="Fill-85" fill="#36588F"/><path d="M13.69 17.126a.372.372 0 0 1-.18-.045c-.167-.09-.223-.288-.124-.442l1.458-2.27a.37.37 0 0 1 .483-.114.31.31 0 0 1 .123.444l-1.457 2.27a.36.36 0 0 1-.303.158" id="Fill-86" fill="#36588F"/><path d="M22.278 19.166a.202.202 0 0 1-.11-.033l-6.835-4.766a.162.162 0 0 1-.034-.24.193.193 0 0 1 .256-.03l6.833 4.764a.16.16 0 0 1 .036.24.188.188 0 0 1-.148.066" id="Fill-87" fill="#36588F"/><path d="M22.055 19.242c.153.107.37.08.486-.062a.302.302 0 0 0-.066-.447.365.365 0 0 0-.486.062.302.302 0 0 0 .067.447" id="Fill-88" fill="#36588F"/><path d="M16.352 18.912l-1.294-4.38.427-.106 1.295 4.38-.428.106" id="Fill-89" fill="#36588F"/><path d="M14.795 14.622c-.072-.244.086-.498.352-.564.266-.067.542.078.613.322.074.246-.084.5-.35.566-.267.067-.542-.078-.615-.324" id="Fill-90" fill="#36588F"/><path d="M16.077 18.958c.072.246.347.39.615.323.265-.067.422-.32.35-.564-.07-.246-.346-.39-.613-.324-.27.068-.426.32-.353.566" id="Fill-91" fill="#36588F"/></g></g></g></svg>