<svg version="1.1" id="Layer_1" xmlns="http://www.w3.org/2000/svg" xmlns:xlink="http://www.w3.org/1999/xlink" x="0" y="0" viewBox="-35 257 540 280" xml:space="preserve"><style type="text/css">.st0{clip-path:url(#SVGID_2_);fill:url(#SVGID_4_)}.st1{fill:#005aa9}.st2{fill:#f5881f}.st3{fill:none;stroke:#035ba8;stroke-width:2.833;stroke-linecap:round;stroke-miterlimit:10}.st4{stroke-width:2.6994}.st4,.st5{fill:none;stroke:#035ba8;stroke-miterlimit:10}.st5{stroke-width:5.0708}.st5,.st6{stroke-linecap:round}.st6{stroke-width:5.3987}.st6,.st7{fill:none;stroke:#035ba8;stroke-miterlimit:10}.st7{stroke-width:3.3998}.st8{clip-path:url(#SVGID_6_);fill:url(#SVGID_7_)}.st9{fill:#999}</style><defs><path id="SVGID_1_" d="M49.4 536.5c-.1.7.4 1.5 1.2 1.6.7.1 1.5-.4 1.6-1.2l25.2-154.5c.7-.3 1.4-1 1.5-1.9l2.3-20.8-4.5-.6-27.3 177.4z"/></defs><clipPath id="SVGID_2_"><use xlink:href="#SVGID_1_" overflow="visible"/></clipPath><linearGradient id="SVGID_4_" gradientUnits="userSpaceOnUse" x1="-811.664" y1="37.602" x2="-810.5" y2="37.602" gradientTransform="rotate(-90 -65305.663 -59561.228) scale(154.5047)"><stop offset="0" stop-color="#000"/><stop offset=".179" stop-color="#4f4f4f"/><stop offset=".365" stop-color="#9a9a9a"/><stop offset=".519" stop-color="#d0d0d0"/><stop offset=".633" stop-color="#f2f2f2"/><stop offset=".696" stop-color="#FFF"/><stop offset="1" stop-color="#FFF"/></linearGradient><path class="st0" d="M49.3 359.1h31.8v179.2H49.3z"/><g><path class="st1" d="M204.3 353.8v12.5h-.1c-1.6-2.1-4-3.2-6.6-3.2-5.8 0-9.3 4.7-9.3 10.3 0 5.3 3.6 10.2 9.2 10.2 2.6 0 5-1.2 6.7-3.2h.1v2.7h3.2V354h-3.2zm-6.3 26.6c-4.1 0-6.3-3.6-6.3-7.3 0-3.7 2.5-6.9 6.3-6.9 4.1 0 6.5 3.1 6.5 7-.1 3.7-2.3 7.2-6.5 7.2M172.5 353.8v12.5h-.1c-1.6-2.1-4-3.2-6.6-3.2-5.8 0-9.3 4.7-9.3 10.3 0 5.3 3.6 10.2 9.2 10.2 2.6 0 5-1.2 6.7-3.2h.1v2.7h3.2V354h-3.2zm-6.3 26.6c-4.1 0-6.3-3.6-6.3-7.3 0-3.7 2.5-6.9 6.3-6.9 4.1 0 6.5 3.1 6.5 7-.1 3.7-2.3 7.2-6.5 7.2"/><path class="st2" d="M258.3 364.1c1.6-2.1 3.6-3.1 6.2-3.1 5.9 0 7.3 4.3 7.3 9.3V383h-3.7v-12c0-3.5-.3-6.6-4.5-6.6-5 0-5.3 4.6-5.3 8.5v10.2h-3.7v-21.3h3.7v2.3zM300.4 373c0 4 2.8 7.1 7 7.1 3.1 0 5.1-1.9 6.5-4.4l3.1 1.8c-2.1 3.9-5.5 6-9.8 6-6.4 0-10.5-4.9-10.5-11 0-6.3 3.7-11.5 10.4-11.5 6.9 0 10.5 5.7 10.2 12h-16.9zm13-3.1c-.5-3.1-3.1-5.5-6.3-5.5s-6.1 2.5-6.5 5.5h12.8zM344.6 382.9h-3.7v-18h-2.2v-3.3h2.2v-7.8h3.7v7.8h5l-1.3 3.3h-3.7zM358.3 353.5c0 1.5-1.2 2.6-2.6 2.6-1.4 0-2.6-1.2-2.6-2.6 0-1.4 1.2-2.6 2.6-2.6 1.4 0 2.6 1.1 2.6 2.6m-.8 29.4h-3.7v-21.3h3.7v21.3zM410.9 382.9h-3.7V380h-.1c-1.9 2.4-4.4 3.6-7.3 3.6-6.3 0-10.3-5.3-10.3-11.2 0-6.1 3.9-11.3 10.3-11.3 2.9 0 5.5 1.4 7.3 3.7h.1v-3h3.7v21.1zM393.3 372c0 4.2 2.4 8.2 7 8.2 4.7 0 7.1-3.8 7.1-8.1s-2.7-7.7-7.2-7.7c-4.2-.1-6.9 3.5-6.9 7.6M434 367.8c-1.8-2.1-3.9-3.6-6.7-3.6-4.4 0-7.5 3.7-7.5 8 0 4.2 2.9 8 7.3 8 3 0 5.2-1.4 7-3.7h.1v4.9c-2.1 1.4-4.2 2.2-6.8 2.2-6.5 0-11.4-4.8-11.4-11.3 0-6.4 5.1-11.3 11.4-11.3 2.3 0 4.7.7 6.6 2.1v4.7zM444.7 353.5c0 1.5-1.2 2.6-2.6 2.6-1.4 0-2.6-1.2-2.6-2.6 0-1.4 1.2-2.6 2.6-2.6 1.3 0 2.6 1.1 2.6 2.6m-.8 29.4h-3.7v-21.3h3.7v21.3zM449.3 372.2c0-6.3 4.9-11.3 11.2-11.3 6.3 0 11.2 5 11.2 11.3s-5 11.2-11.2 11.2c-6.2 0-11.2-4.9-11.2-11.2m3.7 0c0 4.4 3.1 8 7.6 8s7.6-3.6 7.6-8c0-4.3-3.1-8-7.6-8-4.6.1-7.6 3.6-7.6 8M480.6 364.1c1.6-2.1 3.6-3.1 6.2-3.1 5.9 0 7.3 4.3 7.3 9.3V383h-3.7v-12c0-3.5-.3-6.6-4.5-6.6-5 0-5.3 4.6-5.3 8.5v10.2h-3.7v-21.3h3.7v2.3zM380.6 361.6v3h-.1c-1.8-2.3-4.3-3.7-7.3-3.7-6.3 0-10.4 5.3-10.4 11.4 0 6 4 11.2 10.2 11.2 2.8 0 5.7-1.4 7.4-3.6h.1v2.5c0 4.8-1.3 9-6.9 9-.2 0-.4 0-.6-.1v3.3h.7c3.1 0 6.3-1.3 8.3-3.8 2.2-2.8 2.2-5.8 2.2-9.2v-20.3h-3.6v.3zm-7 18.5c-4.5 0-7-4-7-8.2 0-4 2.7-7.6 7-7.6 4.5 0 7.2 3.5 7.2 7.7 0 4.3-2.5 8.1-7.2 8.1M243.7 353.8h3.8v29.1h-3.8zM470.2 348.9s-.2.2-.6.4c-.4.3-.8.7-1.6 1.2-.3.2-.7.5-1.2.7-.4.3-.8.5-1.4.8-.5.2-.9.5-1.5.7-.5.2-1 .4-1.6.7-.5.2-1 .4-1.6.5-.5.2-1 .3-1.6.4-.5.1-1 .3-1.5.3-.5.1-.9.1-1.4.2-.8.1-1.6.1-2 .2-.5 0-.7.1-.7.1l-.1-1.8s.3 0 .7-.1c.4-.1 1.2-.1 1.9-.3.4-.1.8-.2 1.3-.3.4-.1.8-.2 1.4-.4.4-.2.9-.3 1.5-.5.4-.2.9-.4 1.5-.6.4-.2.9-.5 1.4-.7.4-.2.8-.5 1.3-.8.4-.3.8-.5 1.2-.8.3-.3.6-.5.9-.7.6-.4 1.2-.9 1.5-1.3l.5-.5 1.7 2.6zM330.6 370.3c-2.5-1-4.9-1.8-4.9-3.8 0-1.4 1.4-2.4 2.6-2.4 1.4 0 2.4 1 2.9 2.2l3-1.6c-.9-2.2-3.2-4-5.7-4-3.5 0-6.4 2.4-6.4 6.1 0 6.7 9.6 5.1 9.6 9.8 0 2-1.5 3.2-3.5 3.2h-.2v3.3h.2c4 0 7.2-2.9 7.2-6.9.2-3.2-2.3-4.8-4.8-5.9M285.4 383.4l10.1-21.8h-4.1l-6.4 14.3-6.4-14.3h-4.1l10.2 21.8z"/><path class="st1" d="M137.9 373.9c0 3.6 2.6 6.5 6.3 6.5 2.8 0 4.6-1.7 5.9-4l2.8 1.6c-1.9 3.5-4.9 5.4-8.9 5.4-5.8 0-9.4-4.4-9.4-9.9 0-5.8 3.3-10.5 9.4-10.5 6.2 0 9.5 5.1 9.2 10.9h-15.3zm11.7-2.8c-.4-2.8-2.8-5-5.7-5-2.8 0-5.4 2.3-5.9 5h11.6zM215.7 373.9c0 3.6 2.6 6.5 6.3 6.5 2.8 0 4.6-1.7 5.9-4l2.8 1.6c-1.9 3.5-5 5.4-8.9 5.4-5.8 0-9.4-4.4-9.4-9.9 0-5.8 3.3-10.5 9.4-10.5 6.2 0 9.5 5.1 9.2 10.9h-15.3zm11.8-2.8c-.4-2.8-2.8-5-5.7-5-2.8 0-5.4 2.3-5.9 5h11.6zM122.8 369.8c4.8-.4 7.7-3.6 7.7-8.1 0-6.6-5.4-8.1-11.3-8.1h-4.5v22.7l3.5 2.5V370h.8l9.4 12.8h4.2l-9.8-13zm-4.6-2.6v-10.5h1c4.2 0 7.8.4 7.8 5.2 0 4.5-4 5.2-7.8 5.2h-1z"/></g><g><path class="st3" d="M80.8 357.3l45.2 34.3"/><path class="st4" d="M78.8 359.5l46.3-80.3"/><path class="st1" d="M129.5 282c1.5-2.5.6-5.8-1.9-7.2-2.5-1.5-5.8-.6-7.2 1.9s-.6 5.8 1.9 7.2c2.6 1.6 5.7.7 7.2-1.9"/><path class="st4" d="M78.8 359.5l-.1-92.7"/><path class="st1" d="M84 267.1c0-2.9-2.4-5.2-5.2-5.2-2.9 0-5.2 2.4-5.2 5.2 0 2.9 2.4 5.2 5.2 5.2 2.9 0 5.2-2.3 5.2-5.2"/><path class="st4" d="M78.8 359.5l-46.4-80.3"/><path class="st1" d="M37.1 276.8c-1.5-2.5-4.7-3.3-7.2-1.9-2.5 1.5-3.3 4.7-1.9 7.2 1.5 2.5 4.7 3.3 7.2 1.9 2.4-1.5 3.3-4.7 1.9-7.2"/><path class="st4" d="M78.8 359.5l-80.4-46.3"/><path class="st1" d="M1.2 308.7c-2.5-1.5-5.8-.6-7.2 2-1.5 2.5-.6 5.8 2 7.2 2.5 1.5 5.8.6 7.2-2 1.5-2.5.5-5.7-2-7.2"/><path class="st4" d="M78.8 359.5l-92.8.1"/><path class="st1" d="M-13.8 354.3c-2.9 0-5.2 2.4-5.2 5.2 0 2.9 2.4 5.2 5.2 5.2 2.9 0 5.2-2.4 5.2-5.2.1-2.9-2.2-5.2-5.2-5.2"/><path class="st4" d="M78.8 359.5l-80.4 46.4"/><path class="st1" d="M-4 401.2c-2.5 1.5-3.3 4.7-1.9 7.2s4.7 3.3 7.2 1.9c2.5-1.5 3.3-4.7 1.9-7.2-1.5-2.4-4.7-3.3-7.2-1.9"/><path class="st4" d="M78.8 359.5l-46.4 80.3"/><path class="st1" d="M28 437c-1.5 2.5-.6 5.8 1.9 7.2s5.8.6 7.2-1.9c1.5-2.5.6-5.8-1.9-7.2-2.6-1.4-5.9-.6-7.2 1.9M77.8 358.9l25.6-55.3 1.4.5L79.9 360z"/><path class="st1" d="M107.2 305.5c.8-1.8 0-3.9-1.8-4.6-1.8-.8-3.9 0-4.6 1.8-.8 1.8 0 3.9 1.8 4.6 1.8.7 3.9-.1 4.6-1.8M77.7 359.6l-5.5-60.9 1.4-.1 6.4 60.8z"/><path class="st1" d="M76.3 298.5c-.2-1.9-1.9-3.3-3.9-3.1-1.9.2-3.3 1.9-3.1 3.9.2 1.9 1.9 3.3 3.9 3.1 2-.3 3.3-2.1 3.1-3.9M77.9 360.1l-35.4-50 1.2-.9 36.1 49.5z"/><path class="st1" d="M46.1 307.8c-1.2-1.6-3.3-1.9-4.9-.8-1.6 1.2-1.9 3.3-.8 4.9 1.2 1.6 3.3 1.9 4.9.8 1.5-1.2 1.9-3.4.8-4.9M78.4 360.5l-55.7-25.7.6-1.3 56.1 24.9z"/><path class="st1" d="M24.5 331c-1.8-.8-3.9 0-4.6 1.8-.8 1.8 0 3.9 1.8 4.6 1.8.8 3.9 0 4.6-1.8.7-1.7 0-3.8-1.8-4.6M79 360.6l-61.3 5.6-.1-1.5 61.1-6.4z"/><path class="st1" d="M17.5 361.9c-1.9.2-3.3 1.9-3.1 3.9.2 1.9 1.9 3.3 3.9 3.1 1.9-.2 3.3-1.9 3.1-3.9-.2-1.9-1.9-3.2-3.9-3.1M79.6 360.4l-50.5 35.3-.7-1.2 49.8-36z"/><path class="st1" d="M26.8 392.2c-1.6 1.2-2 3.3-.8 4.9s3.3 2 4.9.8c1.6-1.2 2-3.3.8-4.9-1.1-1.6-3.2-1.9-4.9-.8M79.9 360l-26.1 55.7-1.2-.7 25.2-56.1z"/><path class="st1" d="M50.2 413.7c-.8 1.8 0 3.9 1.7 4.6 1.8.8 3.9 0 4.6-1.7.8-1.8 0-3.9-1.7-4.6-1.8-.8-3.9 0-4.6 1.7M77.9 359.1l11.5-42.5 3.3.9-12.8 42.3z"/><path class="st1" d="M95.6 318.5c.7-2.6-.7-5.2-3.3-6s-5.2.7-6 3.3c-.7 2.6.7 5.2 3.3 6s5.3-.6 6-3.3M77.9 359.7L66.5 317l3.2-.9 10.2 43.2z"/><path class="st1" d="M72.9 315.6c-.6-2.6-3.3-4.2-5.9-3.6-2.6.6-4.2 3.2-3.6 5.9.6 2.6 3.2 4.2 5.9 3.6s4.2-3.3 3.6-5.9M78.1 360.2l-31.3-31.4 2.4-2.3 30.4 32.2z"/><path class="st1" d="M51.7 324.4c-1.9-1.9-4.9-2-6.9-.1-1.9 1.9-2 4.9-.1 6.9 1.9 1.9 4.9 2 6.9.1 1.9-1.9 2-4.9.1-6.9M78.6 360.4l-42.9-11.5 1-3.1 42.5 12.7z"/><path class="st1" d="M37.8 342.7c-2.6-.7-5.2.7-6 3.3-.7 2.6.7 5.2 3.3 6s5.2-.7 6-3.3c.8-2.5-.8-5.2-3.3-6M79.2 360.4l-42.9 11.5-.9-3.3 43.2-10.2z"/><path class="st1" d="M34.9 365.4c-2.6.6-4.2 3.2-3.6 5.9.6 2.6 3.2 4.2 5.9 3.6 2.6-.6 4.2-3.2 3.6-5.9-.7-2.6-3.3-4.2-5.9-3.6M79.6 360.2l-31.5 31.3-2.3-2.4 32.4-30.4z"/><path class="st1" d="M43.7 386.7c-1.9 1.9-2 4.9-.1 6.9 1.9 1.9 4.9 2 6.9.1 1.9-1.9 2-4.9.1-6.9s-4.9-2-6.9-.1M79.9 359.8l-11.7 42.8-3.3-1 13-42.5z"/><path class="st1" d="M62 400.6c-.7 2.6.7 5.2 3.3 6.1 2.6.7 5.2-.7 6.1-3.3.7-2.6-.7-5.2-3.3-6.1-2.6-.8-5.4.7-6.1 3.3M95.8 359.1c0-9.2-7.5-16.7-16.7-16.7s-16.7 7.5-16.7 16.7 7.5 16.7 16.7 16.7c9.3.1 16.7-7.3 16.7-16.7"/><path class="st5" d="M78.8 359.5l4.7 16.2M78.8 359.5l12.3 11.9M78.8 359.5l16.7 4.5M78.8 359.5l16.9-4.2M78.8 359.5l12.6-11.9M78.8 359.5l5.2-16.4M78.8 359.5L75.3 343M78.8 359.5l-11.1-12.2M78.8 359.5l-15.6-4.7M78.8 359.5L63 363.4M78.8 359.5l-11.6 11.6"/><path class="st6" d="M78.8 359.5l-.1 18.8M78.8 359.5l9.4 16.3M78.8 359.5l16.4 9.3M78.8 359.5l18.9-.1M78.8 359.5l16.4-9.7M78.8 359.5l9.4-16.6M78.8 359.5l-.1-19.1M78.8 359.5l-9.6-16.6M78.8 359.5l-16.5-9.7M78.8 359.5l-19-.1M78.8 359.5l-16.5 9.3M69.2 375.8l9.6-16.3"/><path class="st1" d="M124.6 393.3c1 .7 2.4.5 3.2-.4.7-1 .5-2.4-.4-3.2-1-.7-2.4-.5-3.2.4-.8 1-.7 2.4.4 3.2"/><path class="st7" d="M79.7 359l8.6 31.5"/><path class="st1" d="M76.5 360.1c-.5-1.8.5-3.6 2.3-4.1s3.6.5 4.1 2.3-.5 3.6-2.3 4.1c-1.8.5-3.5-.5-4.1-2.3M85 391.3c.5 1.8 2.3 2.8 4.1 2.3s2.8-2.3 2.3-4.1c-.5-1.8-2.3-2.8-4.1-2.3-1.6.5-2.7 2.3-2.3 4.1"/><path class="st4" d="M130.2 342.4l-48.9 13"/><path class="st1" d="M129.5 339.9c1.4-.4 2.8.4 3.2 1.9.4 1.4-.4 2.8-1.9 3.2-1.4.4-2.8-.4-3.2-1.9-.4-1.4.4-2.9 1.9-3.2M80.7 352.9c-1.4.4-2.2 1.8-1.9 3.2.4 1.4 1.8 2.2 3.2 1.9 1.4-.4 2.2-1.8 1.9-3.2-.3-1.5-1.7-2.4-3.2-1.9"/><defs><path id="SVGID_5_" d="M49.4 536.5c-.1.7.4 1.5 1.2 1.6.7.1 1.5-.4 1.6-1.2l25.2-154.5c.7-.3 1.4-1 1.5-1.9l2.3-20.8-4.5-.6-27.3 177.4z"/></defs><clipPath id="SVGID_6_"><use xlink:href="#SVGID_5_" overflow="visible"/></clipPath><linearGradient id="SVGID_7_" gradientUnits="userSpaceOnUse" x1="-811.664" y1="37.602" x2="-810.5" y2="37.602" gradientTransform="rotate(-90 -65305.663 -59561.228) scale(154.5047)"><stop offset="0" stop-color="#FFF"/><stop offset=".179" stop-color="#b0cce4"/><stop offset=".365" stop-color="#659ccb"/><stop offset=".519" stop-color="#2f78b9"/><stop offset=".633" stop-color="#0d62ad"/><stop offset=".696" stop-color="#005aa9"/><stop offset="1" stop-color="#005aa9"/></linearGradient><path class="st8" d="M49.3 359.1h31.8v179.2H49.3z"/></g><g><path class="st2" d="M116.8 406.7v2.4h3.3v1.8h-3.3v2.9h3.5v1.8h-5.5v-10.8h5.5v1.8h-3.5v.1z"/><path class="st9" d="M124.6 404.8h3c3.1 0 5.2 2.3 5.2 5.4 0 3-2.1 5.3-5.2 5.3h-3v-10.7zm2.1 9h.3c2.6 0 3.6-1.5 3.6-3.6 0-2.3-1.2-3.6-3.6-3.6h-.3v7.2zM136.6 404.8h2.1v6.1c0 1.4.1 3.2 1.9 3.2s1.9-1.9 1.9-3.2v-6.1h2.1v6.5c0 2.6-1.2 4.6-4 4.6-2.9 0-4-2-4-4.6v-6.5zM156.2 407.7c-.6-.7-1.5-1.2-2.4-1.2-2 0-3.1 1.9-3.1 3.7s1.2 3.7 3.1 3.7c.9 0 1.8-.4 2.4-1.2v2.5c-.8.4-1.6.6-2.4.6-3 0-5.2-2.6-5.2-5.5 0-3 2.2-5.8 5.3-5.8.8 0 1.7.2 2.4.6v2.5h-.1zM162.6 413.4l-.8 2.3h-2.2l4.2-11.1h1.7l4 11h-2.2l-.8-2.3h-3.8v.1zm1.9-5.7l-1.3 3.9h2.5l-1.2-3.9zM180.1 407.7c-.6-.7-1.5-1.2-2.4-1.2-2 0-3.1 1.9-3.1 3.7s1.2 3.7 3.1 3.7c.9 0 1.8-.4 2.4-1.2v2.5c-.8.4-1.6.6-2.4.6-3 0-5.2-2.6-5.2-5.5 0-3 2.2-5.8 5.3-5.8.8 0 1.7.2 2.4.6v2.5h-.1zM186.4 415.6h-2.1v-10.8h2.1v10.8zM195.6 415.9c-3.2 0-5.3-2.5-5.3-5.7s2.1-5.7 5.3-5.7 5.3 2.4 5.3 5.7c.1 3.2-2 5.7-5.3 5.7zm0-9.3c-2 0-3.1 1.8-3.1 3.5s.8 3.7 3.1 3.7 3.1-2.1 3.1-3.7c.1-1.8-1.1-3.5-3.1-3.5zm2-4.4l-2.2 2.1-1-.6 1.7-2.4 1.5.9zM204.8 404.6h1.5l5.7 7.5v-7.2h2.1v11h-1.5l-5.7-7.5v7.3h-2.1v-11.1z"/><g><path class="st2" d="M247.2 415.6h-2.1v-8.9h-2.2v-1.8h6.5v1.8h-2.2v8.9z"/><path class="st9" d="M255.1 406.7v2.4h3.3v1.8h-3.3v2.9h3.5v1.8H253v-10.8h5.5v1.8H255v.1zM270 407.7c-.6-.7-1.5-1.2-2.4-1.2-2 0-3.1 1.9-3.1 3.7s1.2 3.7 3.1 3.7c.9 0 1.8-.4 2.4-1.2v2.5c-.8.4-1.6.6-2.4.6-3 0-5.2-2.6-5.2-5.5 0-3 2.2-5.8 5.3-5.8.8 0 1.7.2 2.4.6v2.5h-.1zM274.2 404.6h1.5l5.7 7.5v-7.2h2.1v11H282l-5.7-7.5v7.3h-2.1v-11.1zM292.8 415.9c-3.2 0-5.3-2.5-5.3-5.7s2.1-5.7 5.3-5.7 5.3 2.4 5.3 5.7c0 3.2-2 5.7-5.3 5.7zm0-9.3c-2 0-3.1 1.8-3.1 3.5s.8 3.7 3.1 3.7 3.1-2.1 3.1-3.7c0-1.8-1.2-3.5-3.1-3.5zM304.1 413.8h2.9v1.8h-5v-10.8h2.1v9zM315.4 415.9c-3.2 0-5.3-2.5-5.3-5.7s2.1-5.7 5.3-5.7 5.3 2.4 5.3 5.7c0 3.2-2 5.7-5.3 5.7zm0-9.3c-2 0-3.1 1.8-3.1 3.5s.8 3.7 3.1 3.7 3.1-2.1 3.1-3.7c0-1.8-1.2-3.5-3.1-3.5zM334.1 409.9v.3c0 3-1.6 5.8-4.9 5.8-3.1 0-5.1-2.6-5.1-5.7s2.1-5.8 5.2-5.8c1.8 0 3.5.9 4.3 2.6l-1.9 1c-.4-.9-1.4-1.7-2.4-1.7-2 0-3 2.1-3 3.9s1 3.8 3 3.8c1.4 0 2.4-1.2 2.4-2.4h-2.2V410h4.6v-.1zM340.8 402.2l-2.2 2.1-1-.6 1.7-2.4 1.5.9zm-.7 13.4H338v-10.8h2.1v10.8zM346.6 413.4l-.8 2.3h-2.2l4.2-11.1h1.7l4.1 11.1h-2.2l-.8-2.3h-4zm1.8-5.7l-1.3 3.9h2.5l-1.2-3.9z"/></g><g><path class="st2" d="M384.2 415.6h-2.1v-10.8h2.1v10.8z"/><path class="st9" d="M388.6 404.6h1.5l5.7 7.5v-7.2h2.1v11h-1.4l-5.7-7.5v7.3h-2.1v-11.1h-.1zM402.3 404.6h1.5l5.7 7.5v-7.2h2.1v11h-1.5l-5.7-7.5v7.3h-2.1v-11.1zM420.8 415.9c-3.2 0-5.3-2.5-5.3-5.7s2.1-5.7 5.3-5.7 5.3 2.4 5.3 5.7c.1 3.2-2 5.7-5.3 5.7zm0-9.3c-2 0-3.1 1.8-3.1 3.5s.8 3.7 3.1 3.7 3.1-2.1 3.1-3.7c.1-1.8-1.1-3.5-3.1-3.5zM433.9 412.1l2.4-7.2h2.3l-4.2 11.1h-1.3l-4.1-11.1h2.3l2.6 7.2zM442.5 413.4l-.8 2.3h-2.3l4.2-11.1h1.7l4.1 11.1h-2.2l-.8-2.3h-3.9zm1.8-5.7l-1.3 3.9h2.5l-1.2-3.9zM460 407.7c-.6-.7-1.5-1.2-2.4-1.2-2 0-3.1 1.9-3.1 3.7s1.2 3.7 3.1 3.7c.9 0 1.8-.4 2.4-1.2v2.5c-.8.4-1.6.6-2.4.6-3 0-5.2-2.6-5.2-5.5 0-3 2.2-5.8 5.3-5.8.8 0 1.7.2 2.4.6v2.5h-.1zM466.4 415.6h-2.1v-10.8h2.1v10.8zM475.6 415.9c-3.2 0-5.3-2.5-5.3-5.7s2.1-5.7 5.3-5.7 5.3 2.4 5.3 5.7c0 3.2-2.1 5.7-5.3 5.7zm0-9.3c-2 0-3.1 1.8-3.1 3.5s.8 3.7 3.1 3.7 3.1-2.1 3.1-3.7c0-1.8-1.1-3.5-3.1-3.5zm2-4.4l-2.2 2.1-1-.6 1.7-2.4 1.5.9zM484.8 404.6h1.5l5.7 7.5v-7.2h2.1v11h-1.5l-5.7-7.5v7.3h-2.1v-11.1z"/></g><g><path class="st9" d="M226.2 410.2c0-1.5 1.2-2.7 2.7-2.7 1.5 0 2.7 1.2 2.7 2.7 0 1.5-1.3 2.7-2.7 2.7-1.6-.1-2.7-1.2-2.7-2.7zM364.6 410.2c0-1.5 1.2-2.7 2.7-2.7 1.5 0 2.7 1.2 2.7 2.7 0 1.5-1.3 2.7-2.7 2.7-1.5-.1-2.7-1.2-2.7-2.7z"/></g></g></svg>